<svg id="Layer_1" data-name="Layer 1" xmlns="http://www.w3.org/2000/svg" viewBox="0 0 512 512">
  <g>
    <path d="M38,188.18C36.3,109.27,100.11,42.4,178.53,40.92c80.71-1.53,148.65,61.27,150.19,138.82,1.68,84-60.48,149.44-143.73,151.38C105.69,333,39.74,268.84,38,188.18ZM183.56,69.43C118.83,69.26,66.29,121,65.94,185.19,65.6,249.56,118.26,302.47,183,302.82c64.54.35,117.06-52,117.56-117.09C301.07,122,248.37,69.6,183.56,69.43Z"/>
    <path d="M276.43,318l40.24-40.41c9.55,7.85,22.5,18.45,35.42,29.08q49.57,40.8,99.12,81.62a46.09,46.09,0,0,1,4.41,67.38c-17.83,18.91-49.63,19.62-66.76-.4-38.55-45.06-76.06-91-114-136.63a17.35,17.35,0,0,1-1.78-3.52Z"/>
    <path d="M112.88,108.06c38-38.22,103.83-36.82,145.24,2.78,43.28,41.39,35.44,107.71,11,135.52,20-51.79,13.27-97-29.44-131.57C200.17,82.82,156.79,83.35,112.88,108.06Z"/>
    <path d="M214.28,168.16c1.12-6.55,5.58-10.48,13.06-10,7.75.44,11.44,5.39,11.08,12.82s-5.18,11.68-12.47,11.85C219,182.94,213.57,176.08,214.28,168.16Z"/>
    <path d="M129,169.54c-.28,6.22-4.66,10.14-12,10.61-6.8.43-12.66-6-12.15-13.1.54-7.69,5.34-11.31,12.63-11.5C124.16,155.38,129.1,161,129,169.54Z"/>
    <path d="M205.25,253.58c-10.87-3.12-21.73-8.67-32.59-8.67s-21.78,5.56-35,9.36c8.76-11.82,19.71-15,31.1-16,14.38-1.24,27.35,2.71,37.67,12.68C206,251.85,205.62,252.71,205.25,253.58Z"/>
  </g>
</svg>
