<svg id="Layer_1" data-name="Layer 1" xmlns="http://www.w3.org/2000/svg" viewBox="0 0 1024 1024">
  <path d="M512.25,311.45c-110.69,0-200.42,89.73-200.42,200.42S401.56,712.3,512.25,712.3s200.43-89.73,200.43-200.43S622.9,311.56,512.25,311.45Zm0,334A133.62,133.62,0,1,1,645.87,511.87,133.61,133.61,0,0,1,512.25,645.49Z"/>
  <path d="M870.33,400.13l-45.9-11.46a7.43,7.43,0,0,1-4.11-4.64,6.71,6.71,0,0,1,0-5.71l24.36-40.59A100.22,100.22,0,0,0,829.34,215.3l-20.71-20.71a100.22,100.22,0,0,0-122.43-15.1l-40.58,24.35a7.24,7.24,0,0,1-6.18-.36,6.9,6.9,0,0,1-4.21-3.91l-11.46-45.93a100.22,100.22,0,0,0-97.14-75.9H497.37a100.2,100.2,0,0,0-97.24,75.93l-11.46,45.9a7.43,7.43,0,0,1-4.64,4.11,6.72,6.72,0,0,1-5.65.16L337.8,179.49a100.22,100.22,0,0,0-122.5,15.17l-20.71,20.71a100.22,100.22,0,0,0-15.1,122.43l24.35,40.58a7.14,7.14,0,0,1-.36,6.18,6.9,6.9,0,0,1-3.91,4.21l-45.93,11.46a100.22,100.22,0,0,0-75.9,97.14v29.26a100.21,100.21,0,0,0,75.93,97.24l45.9,11.46a7.43,7.43,0,0,1,4.11,4.64,6.72,6.72,0,0,1,.16,5.65L179.49,686.2a100.22,100.22,0,0,0,15.17,122.5l20.71,20.71a100.22,100.22,0,0,0,122.43,15.1l40.58-24.35a7.24,7.24,0,0,1,6.18.36,6.9,6.9,0,0,1,4.21,3.91l11.46,45.93a100.22,100.22,0,0,0,97.14,75.9h29.26a100.21,100.21,0,0,0,97.24-75.93l11.46-45.9a7.42,7.42,0,0,1,4.68-4.11,7,7,0,0,1,5.67,0l40.59,24.36a100.22,100.22,0,0,0,122.43-15.1l20.71-20.71a100.22,100.22,0,0,0,15.1-122.43l-24.35-40.82a7.14,7.14,0,0,1,.36-6.18,6.9,6.9,0,0,1,3.91-4.21l45.93-11.46a100.22,100.22,0,0,0,75.9-97.14V497.37A100.2,100.2,0,0,0,870.33,400.13Zm9.12,126.5a33.41,33.41,0,0,1-25.29,32.44l-45.93,11.45a75,75,0,0,0-45.36,109.57l24.35,40.59a33.42,33.42,0,0,1-5,40.79l-20.71,20.71a33.42,33.42,0,0,1-40.79,5l-40.62-24.35a73.47,73.47,0,0,0-66.21-4,72.65,72.65,0,0,0-43.43,49.4L559,854.13a33.41,33.41,0,0,1-32.44,25.32H497.27a33.41,33.41,0,0,1-32.44-25.29l-11.45-45.93a72.87,72.87,0,0,0-43.66-49.54,76.43,76.43,0,0,0-29.27-6,71.12,71.12,0,0,0-36.74,10l-40.59,24.36A33.4,33.4,0,0,1,262.33,782l-20.71-20.71a33.42,33.42,0,0,1-5-40.79l24.35-40.62a75,75,0,0,0-45.36-109.53l-45.9-11.46a33.4,33.4,0,0,1-25.12-32.3V497.37a33.41,33.41,0,0,1,25.29-32.44l45.93-11.45a75,75,0,0,0,45.36-109.57l-24.35-40.59a33.42,33.42,0,0,1,5-40.79l20.71-20.71a33.21,33.21,0,0,1,40.79-5l40.62,24.35a75,75,0,0,0,109.54-45.36l11.45-45.9a33.41,33.41,0,0,1,32.44-25.32h29.26a33.41,33.41,0,0,1,32.44,25.29l11.45,45.93a75,75,0,0,0,109.57,45.36l40.59-24.35a33.42,33.42,0,0,1,40.79,5l20.71,20.71a33.42,33.42,0,0,1,5,40.79l-24.35,40.62a75,75,0,0,0,45.36,109.54l45.9,11.45a33.41,33.41,0,0,1,25.32,32.44Z"/>
</svg>
