<svg id="Layer_1" data-name="Layer 1" xmlns="http://www.w3.org/2000/svg" viewBox="0 0 512 512">
  <g>
    <path d="M237.73,276.71a1.66,1.66,0,0,1-1.19.47H216.82a1.68,1.68,0,0,1,0-3.33h19.72a1.68,1.68,0,0,1,1.19,2.85Z"/>
    <path d="M245.17,269.26a1.67,1.67,0,0,1-1.18.48H224.27a1.68,1.68,0,0,1,0-3.33H244a1.69,1.69,0,0,1,1.53,1,1.66,1.66,0,0,1-.35,1.81Z"/>
    <path d="M252.78,261.66a1.71,1.71,0,0,1-1.19.48H231.87a1.68,1.68,0,0,1,0-3.33l19.68,0a1.68,1.68,0,0,1,1.19,2.85Z"/>
    <path d="M260.38,254.06a1.66,1.66,0,0,1-1.19.47l-19.8.09a1.68,1.68,0,0,1,0-3.33h19.72a1.65,1.65,0,0,1,1.53,1,1.68,1.68,0,0,1-.34,1.82Z"/>
    <path d="M267.94,246.49a1.67,1.67,0,0,1-1.18.48H247a1.68,1.68,0,0,1,0-3.33h19.72a1.69,1.69,0,0,1,1.53,1,1.66,1.66,0,0,1-.35,1.81Z"/>
    <path d="M275.54,238.89a1.67,1.67,0,0,1-1.18.48H254.64a1.68,1.68,0,0,1,0-3.33h19.72a1.68,1.68,0,0,1,1.18,2.85Z"/>
    <path d="M283.15,231.29a1.66,1.66,0,0,1-1.19.47H262.24a1.68,1.68,0,0,1,0-3.33H282a1.68,1.68,0,0,1,1.19,2.85Z"/>
    <path d="M180.83,333.61a1.66,1.66,0,0,1-1.19.47H159.92a1.68,1.68,0,0,1,0-3.33h19.72a1.68,1.68,0,0,1,1.19,2.85Z"/>
    <path d="M188.39,326.05a1.66,1.66,0,0,1-1.19.47H167.48a1.68,1.68,0,0,1,0-3.33H187.2a1.68,1.68,0,0,1,1.19,2.85Z"/>
    <path d="M332.33,182.11a1.71,1.71,0,0,1-1.19.48H311.42a1.68,1.68,0,0,1,0-3.33h19.72a1.68,1.68,0,0,1,1.19,2.85Z"/>
    <path d="M339.89,174.54a1.68,1.68,0,0,1-1.19.48H319a1.68,1.68,0,0,1,0-3.33l19.68,0a1.69,1.69,0,0,1,1.53,1,1.66,1.66,0,0,1-.35,1.81Z"/>
    <path d="M378.22,137.64,132.08,383.78a2.8,2.8,0,1,1-4-3.95L374.27,133.68a2.8,2.8,0,0,1,4,4Z"/>
    <path d="M368.64,128.06,122.5,374.2a2.8,2.8,0,1,1-4-4L364.68,124.1a2.8,2.8,0,0,1,4,4Z"/>
    <path d="M127.41,393.84a1.67,1.67,0,0,1-2.37,0l-16.71-16.71a1.68,1.68,0,0,1,2.37-2.38l16.71,16.71a1.68,1.68,0,0,1,.49,1.19,1.66,1.66,0,0,1-.49,1.19Z"/>
    <path d="M140.55,396.22l-4.19,4.19a5.59,5.59,0,0,1-7.92,0l-5-5a2.8,2.8,0,0,1,4-4l5,5,4.2-4.2L128,383.62a2.8,2.8,0,1,1,4-4l8.63,8.64a5.59,5.59,0,0,1,0,7.92Z"/>
    <path d="M130.33,383.62a1.67,1.67,0,0,1-2.37,0l-9.43-9.42a1.68,1.68,0,0,1,2.38-2.38l9.42,9.43A1.67,1.67,0,0,1,130.33,383.62Z"/>
    <path d="M122.5,374.2a2.79,2.79,0,0,1-4,0l-8.63-8.63-4.2,4.2,5,5a2.8,2.8,0,1,1-4,4l-5-5a5.59,5.59,0,0,1,0-7.92l4.2-4.2h0a5.6,5.6,0,0,1,7.92,0l8.63,8.63a2.81,2.81,0,0,1,0,4Z"/>
    <path d="M127.41,395.42,79.06,443.77a5.59,5.59,0,0,1-7.92,0L58.39,431a5.6,5.6,0,0,1,0-7.92l48.34-48.35a2.8,2.8,0,0,1,4,4L62.35,427.06,75.1,439.81l48.35-48.35a2.8,2.8,0,1,1,4,4Z"/>
    <path d="M76.29,433.08a1.68,1.68,0,0,1-2.38,0l-4.83-4.83a1.68,1.68,0,0,1,0-2.37l28-28a1.68,1.68,0,0,1,2.38,2.38L72.65,427.07l3.64,3.64a1.67,1.67,0,0,1,0,2.37Z"/>
    <path d="M112.44,387.58l-5.58,5.59a1.68,1.68,0,0,1-2.38-2.38l5.59-5.58a1.68,1.68,0,0,1,2.37,2.37Z"/>
    <path d="M401.78,98.24l-17.26,17.27a1.68,1.68,0,0,1-2.38-2.38l17.27-17.26a1.68,1.68,0,1,1,2.37,2.37Z"/>
    <path d="M389.51,131.74a1.68,1.68,0,0,1-2.38,0L370.42,115a1.68,1.68,0,0,1,2.38-2.37l16.71,16.71a1.68,1.68,0,0,1,0,2.37Z"/>
    <path d="M396.08,140.69l-4.2,4.2a5.61,5.61,0,0,1-7.92,0l-8.63-8.64a2.8,2.8,0,1,1,4-4l8.63,8.64,4.2-4.2-5-5a2.8,2.8,0,0,1,4-4l5,5a5.6,5.6,0,0,1,0,7.92Z"/>
    <path d="M379.29,134.66a1.67,1.67,0,0,1-2.37,0l-9.43-9.42a1.68,1.68,0,0,1,2.38-2.38l9.42,9.43A1.67,1.67,0,0,1,379.29,134.66Z"/>
    <path d="M369.87,126.83a2.81,2.81,0,0,1-4,0l-8.63-8.63a5.59,5.59,0,0,1,0-7.92l4.2-4.2a5.6,5.6,0,0,1,7.92,0l5,5a2.8,2.8,0,0,1-4,4l-5-5-4.2,4.2,8.63,8.63a2.8,2.8,0,0,1,0,4Z"/>
    <path d="M439.45,83.39l-48.36,48.35a2.8,2.8,0,0,1-4-4l48.35-48.35L422.73,66.68,374.38,115a2.8,2.8,0,1,1-4-4l48.36-48.35a5.59,5.59,0,0,1,7.91,0l12.75,12.75a5.6,5.6,0,0,1,0,7.92Z"/>
  </g>
</svg>
