<svg id="Layer_1" data-name="Layer 1" xmlns="http://www.w3.org/2000/svg" viewBox="0 0 512 512">
  <path d="M492.75,257.94l-18.69-30.35a13.43,13.43,0,0,0-18.54-4.39L347.08,289.87a13.5,13.5,0,0,0-3.1,2.72H326.65L111,76.91a17.51,17.51,0,0,0-24.6,0L72.22,91.07a17.5,17.5,0,0,0,0,24.59l2.2,2.2-3.64,3.63a21.39,21.39,0,0,0,0,30.12l83.93,83.92a100.74,100.74,0,0,0-29,57.14H93.19a52.59,52.59,0,0,0-52.52,52.52v40.64a16.66,16.66,0,0,0-10.75,10.59l-9.08,27.24H16.06a5.34,5.34,0,0,0-5.67,5.45,5.66,5.66,0,0,0,5.67,5.67h93.31a5.68,5.68,0,1,0,0-11.35h-4.69L95.6,396.2a16.78,16.78,0,0,0-10.82-10.6v-39a10,10,0,0,1,9.91-9.92h32.47c.68.61,1.43,1.21,2.19,1.82a101.3,101.3,0,0,0,96,70.08A103.38,103.38,0,0,0,242.63,407,21.35,21.35,0,0,0,260,382.43a21.55,21.55,0,0,0-8.86-13.92A20.75,20.75,0,0,0,235.37,365a58.52,58.52,0,0,1-60.62-28.46H360l1.29,2.05c6.43,9.23,16.42,5.75,18.53,4.39l27.47-16.88v59.41a16.61,16.61,0,0,0-10.82,10.59l-9.08,27.25h-4.69a5.68,5.68,0,0,0,0,11.35H476a5.68,5.68,0,1,0,0-11.35h-4.69l-9.08-27.24a16.51,16.51,0,0,0-10.82-10.52V299.1l36.85-22.63a13.5,13.5,0,0,0,4.47-18.53ZM440.08,384.85h-21.5V319.24l21.5-13.17Zm19.29,38.59h-60l7.88-23.69a5.23,5.23,0,0,1,5-3.55h34.21a5.27,5.27,0,0,1,5,3.63ZM80.24,98.94,94.39,84.79a5.92,5.92,0,0,1,4.24-1.74,6.08,6.08,0,0,1,4.24,1.74L319.15,301.07a6,6,0,0,1,0,8.48L305,323.7a6.49,6.49,0,0,1-3.41,1.59h-1.66a5.34,5.34,0,0,1-3.41-1.59L80.24,107.49a6.08,6.08,0,0,1,0-8.55ZM162.73,243.4l13.92,13.93a70,70,0,0,0-17.86,29.44,29.52,29.52,0,0,0-11.88-2.5,30.2,30.2,0,0,0-8.32,1.29,88.34,88.34,0,0,1,24.14-42.16ZM128.3,314.16a18.34,18.34,0,0,1,5.22-12.87,5.35,5.35,0,0,0,1.89-1.59,18.63,18.63,0,1,1,11.5,33.23,18.78,18.78,0,0,1-18.61-18.77Zm46.61-10.29h48.28l21.42,21.42H174.68a29.92,29.92,0,0,0,2.2-11.13,28.89,28.89,0,0,0-2-10.29Zm-6-11.35a58.74,58.74,0,0,1,15.75-27.17l27.16,27.17ZM92.73,423.44h-60l7.94-23.69a5.24,5.24,0,0,1,5-3.56H46c.07,0,.15.07.3.07H79.18c.08,0,.23-.07.3-.07h.46a5.29,5.29,0,0,1,5,3.56Zm-19.3-76.89v38.29H51.94V345a41.21,41.21,0,0,1,41.17-41.17h25.73a29.05,29.05,0,0,0-2,10.29,30.4,30.4,0,0,0,2.19,11.13H94.69a21.32,21.32,0,0,0-21.26,21.26ZM185.2,364.48a70,70,0,0,0,52.29,11.81,9.46,9.46,0,0,1,7.27,1.59,10,10,0,0,1,4.16,6.51,9.93,9.93,0,0,1-8.1,11.42,89.85,89.85,0,0,1-97.16-52,22.19,22.19,0,0,0,3.25.3,30.3,30.3,0,0,0,16.57-5,68,68,0,0,0,21.72,25.35Zm75.37-39.27L78.8,143.44a9.84,9.84,0,0,1-2.87-7,10.2,10.2,0,0,1,2.87-7l3.64-3.63L278.29,321.5l-3.64,3.63a9.92,9.92,0,0,1-14.07.08Zm58.95.07,7.65-7.64a17.31,17.31,0,0,0,5.07-12.26,11,11,0,0,0-.15-1.51h8.77a14.51,14.51,0,0,0,1.67,4.46l10.44,17Zm163.76-59.86a2,2,0,0,1-1,1.29L373.86,333.46a2.17,2.17,0,0,1-1.59.22,2,2,0,0,1-1.29-1l-18.69-30.35a2.18,2.18,0,0,1,.68-3l108.44-66.68a2.2,2.2,0,0,1,3,.68l18.69,30.35a2.35,2.35,0,0,1,.22,1.67Z"/>
</svg>
