<?xml version="1.0" encoding="utf-8"?>
<!-- Generator: Adobe Illustrator 26.0.2, SVG Export Plug-In . SVG Version: 6.00 Build 0)  -->
<svg version="1.1" id="Layer_1" xmlns="http://www.w3.org/2000/svg" xmlns:xlink="http://www.w3.org/1999/xlink" x="0px" y="0px"
	 viewBox="0 0 100 100" style="enable-background:new 0 0 100 100;" xml:space="preserve">
<style type="text/css">
	.st0{fill-rule:evenodd;clip-rule:evenodd;}
</style>
<g>
	<path class="st0" d="M29.2,60.9l-3.3-0.3c-2.4-0.2-3,3.3-3.8,7.5c-0.2,1.1-0.4,2.1-0.6,3.2c-0.1,0.5-0.2,0.6,0.3,0.7l3.3,0.7
		c0.5,0.1,0.5,0.2,0.5-0.3l1.2-6.1c0.3-1.7,1-3.2,2-4.2c0.2-0.2,0.4-0.4,0.6-0.5C30.2,60.9,30.4,61,29.2,60.9z M58.9,55.9l-2.1-0.2
		c-0.7-0.1-0.7,0.3-1.6,0.4l-0.5,0c-0.7,0.1-0.6,0-0.1,0.4l8.6,5.5c0.8,0.5,0.8,0.7,0.4-0.2l-2.5-5.9c-0.3-0.6-0.1-0.5-0.7-0.2
		C60,55.9,59.4,56,58.9,55.9z M34.8,94.6l-2.5-0.8c-0.3-0.1-0.5-0.2-0.7-0.4c-0.5-0.4-0.2-0.4-0.8-0.6L9.7,86.9
		c-0.7-0.2-1.3-0.4-2.2-0.4c-0.5,0-0.9-0.1-1.6-0.3c-3.4-1.1-1.9-7.5,1.6-7c1.7,0.2,2.2,0.6,2.6,1c0.4,0.3,0.9,0.5,1.2,0.5l6.1,1.5
		c0.6,0.2,0.6,0.1,0.8-0.4l0.2-0.7c0.1-0.5,0.2-0.4-0.2-0.6c-0.1-0.1-0.2-0.1-0.3-0.2c-0.5-0.4-0.7,0-1.5,0c-0.7,0-1.4-0.1-1.9-0.3
		l-6.6-1.9c-4.6-1.3-2.9-9.8,2.1-8.8l6.7,1.3c0.7,0.1,1.3,0.3,1.8,0.5c0.6,0.3,0.7,0.5,1.3,0.4c0.2,0,0.3,0,0.5,0
		c0.3,0,0.3-0.1,0.4-0.4c0.1-0.6,0.2-1.1,0.3-1.7c-2.6-0.8-1.7-6.2,1.2-6.1c0.3-1,0.7-1.9,1.1-2.6c0.4-0.6,0.6-0.5-0.2-0.6l-9.1-0.9
		c-5.4-0.5-6.2-8.6,0.9-8.8l25.9-0.9c0.6,0,0.4,0,0.7-0.4c1-1.9,2.6-1.5,3.6-2.8L72,9.5c1.2-1.6,2-2.6,4.1-2.9l10-1.4
		c1.2-0.2,2.3-0.2,3.5,0.2C91.2,6,92.2,7.2,92,8.9c-0.1,0.8-0.4,1.6-1,2.5L65.2,49.1c-0.7,1.1-0.6,0.8-0.1,2l6.6,15.7
		c0.4,0.8,0.2,0.7,1,1.2l7,4.4c0.6,0.4,0.9,0.5,1.5,0.6l9.3,1.3c0.5,0.1,0.2,0,0.7-0.1c0.3-0.1,0.4,0,0.7,0c0.7,0.1,1.5,0.2,2.2,0.3
		c0.5,0.1,0.9,0.3,1.2,0.6c1.1,1.3,0.7,4.4-0.7,5.3c-0.2,0.1-0.4,0.2-0.6,0.3c-0.3,0-0.5,0-0.7,0l-2.6-0.4c-0.2,0-0.4-0.1-0.6-0.2
		c-0.5-0.3-0.2-0.3-0.9-0.4l-20.5-3.3c-0.5-0.1-0.7-0.2-0.8,0.1c-0.1,0.3-0.5,0.3-1,0.2l-2-0.3c-2.7-0.4-2.2-5.5,0.2-5.9
		c0.7-0.1,1.1,0.3,0.1-0.4l-14.4-8.9c-1.7-1.1-2.2-1.2-4.3-1.1c-4.5,0.4-9.2,0.7-13.7,1.2c-1.3,0.2-2.3,0.3-3.4,1.4
		c-0.9,0.9-1.5,2.2-1.7,3.7l-1.2,6.1c-0.1,0.4,0,0.4,0.4,0.5c0.8,0.2,1.6,0.3,2.4,0.5c5.5,1.3,3.5,11-1.8,9.8
		c-0.7-0.1-1.4-0.3-2-0.5c-0.6-0.2-0.5-0.2-0.6,0.3c-0.1,0.3-0.1,0.6,0,0.8c0.3,0.5,1.2,0.5,1.8,0.6l6.3,1.6c0.7,0.2,0.5,0.1,1.1,0
		c0.4,0,0.7,0,1.2,0.1l2.6,0.7c4.2,1.1,2.4,8.5-1.9,8C35.5,94.8,35.2,94.7,34.8,94.6z M34.2,92.8c-0.1-0.5-0.1-1.1-0.1-1.7
		c0.2-1.3,0.6-2.2,1.5-3.2c0.4-0.5,0.6-0.4,0-0.5l-0.8-0.2c-0.7-0.2-1.3-0.1-1.8,0.5c-0.8,0.8-1.3,2.3-1.3,3.4
		c0,0.7,0.2,1.5,0.9,1.8l1.2,0.4C34.6,93.5,34.3,93.4,34.2,92.8z M37.6,88c-0.4,0-0.7,0.2-1.1,0.4c-0.8,0.7-1.3,1.8-1.4,2.8
		c-0.1,0.6,0,1.2,0.1,1.7c0.2,0.4,0.5,0.8,0.9,0.9C39.1,94.7,40.5,87.9,37.6,88z M31.7,86.8l-5.2-1.3c-1-0.3-2.2-0.4-2.6-1.2
		c-0.2-0.4-0.1-0.9,0-1.3c0.1-0.6,0.3-0.5-0.3-0.7l-3.8-1c-0.5-0.1-0.4-0.2-0.6,0.3l-0.3,1.3c-0.2,0.8-0.3,0.8-1,0.7L11,81.7
		c-0.4-0.1-0.7-0.1-1.1,0.1c-1.1,0.5-1.5,2.3-1.1,3.3c0.1,0.3,0.3,0.6,0.6,0.7c0.2,0.1,0.5,0.1,0.7,0.2l20.2,5.7
		c0.8,0.2,0.5,0.2,0.5-0.5c0-1.2,0.4-2.7,1.2-3.7C32.4,86.9,32.5,87,31.7,86.8L31.7,86.8z M21.3,64.6c-1,0.6-1.4,2.8-0.7,3.6
		c0.3,0.4,0.3,0.3,0.4-0.1c0.2-1.1,0.4-2.3,0.6-3.4C21.8,64.4,21.8,64.3,21.3,64.6z M19.8,80.2l4.5,1.2c0.8,0.2,0.6,0.1,0.4-0.5
		c-1-2.2-0.3-5.2,1.6-6.7c0.5-0.4,0.6-0.3-0.2-0.4l-4.9-1c-0.5-0.1-1-0.2-1.5-0.1c-1.1,0.1-1.9,1-2.3,1.9c-0.6,1.3-0.7,3,0.1,4.2
		C18.1,79.7,18.9,80,19.8,80.2z M27.9,82.3c3.9,0.7,5.4-6.8,1.3-7.9C25.3,73.5,23.4,81.5,27.9,82.3z M16.4,79
		c-0.8-1.4-0.7-3.2,0-4.7c0.3-0.7,0.8-1.3,1.3-1.8c0.3-0.3,0.5-0.2-0.1-0.4c-0.3-0.1-0.6-0.2-0.8-0.2c-3.2-0.4-4.5,6.4-1.6,7.4
		c0.3,0.1,0.6,0.2,1,0.2C16.7,79.4,16.7,79.4,16.4,79z M12.8,77.9c-0.6-2.2,0.2-5.2,1.9-6.5l-5.1-1c-3.8-0.7-5,6-1.6,6.9l4.3,1.2
		C13.4,78.9,13.1,78.9,12.8,77.9z M8.9,80.6c-0.3-0.2-0.8-0.3-1.6-0.5c-2.3-0.3-3.4,4.3-1.2,5c0.6,0.2,1,0.2,1.4,0.2
		c0.4,0,0.3,0.1,0.2-0.3c-0.3-1.3,0.1-3.1,1.2-4C9.4,80.9,9.5,80.9,8.9,80.6z M29,59.9c1.1,0.1,0.8,0.2,0.4-0.6
		c-0.4-0.7-0.6-1.4-0.7-2.2c-0.2-3.8,3.3-4.8,6.4-5.1l12.1-0.9c2.1-0.2,2.1-0.1,0-0.2l-5.1-0.3c-0.4,0-0.7,0-1.1,0l-26.2,0.9
		c-5.8,0.2-5,6.4-0.9,6.8C19.1,58.9,23.9,59.4,29,59.9z M35,58.5c0.6-1.8,1.4-1.8,3.2-1.9c5.6-0.4,11.2-1,16.8-1.5
		c0.4,0,0.6-0.3,0.8-0.7c0.3-0.7,0.1-1.7-0.3-2.4c-0.3-0.5-0.4-0.4-1-0.3L35.2,53c-2.5,0.2-5.7,0.9-5.5,4c0,0.9,0.4,1.7,1,2.3
		c0.7,0.7,1.3,0.8,2.1,0.8C34.1,60.2,34.6,59.7,35,58.5z M51.8,56.4c-4.5,0.4-9,0.8-13.5,1.2c-1.3,0.1-1.9,0.1-2.3,1.3
		c-0.1,0.2-0.2,0.4-0.3,0.6c-0.3,0.7,0,0.6,1,0.5l9.8-0.9c2.2-0.2,2.9,0,4.8,1.1l21.3,13.1c0.6,0.3,0,1.2-0.5,0.9l-1.7-1
		c-0.7-0.4-1.4-0.8-2.1-1c-0.3-0.1-0.5-0.1-0.8,0.3c-0.3,0.5-0.5,1.2-0.4,1.8c0.1,0.8,0.2,0.7,0.8,0.8l20.9,3.4
		c0.6,0.1,0.5,0.1,0.4-0.4c-0.1-0.8,0-1.7,0.4-2.4c0.3-0.6,0.4-0.5-0.3-0.6l-8.5-1.2c-0.7-0.1-1-0.2-1.6-0.6
		c-8.8-5.6-17.4-11-26.2-16.6C52.4,56.3,52.6,56.3,51.8,56.4z M70.1,65.7l-5.9-14c-0.4-0.9-0.6-0.5-1.3,0.6
		c-0.4,0.5-0.6,1.2-0.9,1.7c-0.4,0.7-0.3,0.4,0,1.2l3.1,7.4c0.3,0.6,0.4,0.7,0.9,1.1l3.6,2.3C70.6,66.6,70.5,66.7,70.1,65.7z
		 M66.3,71.4l-0.7-0.1c-1.7-0.3-2.2,3.7-0.6,4l1,0.1c0.5,0.1,0.3,0,0.2-0.4c-0.4-0.9-0.1-2.3,0.4-3.1C66.9,71.4,67.1,71.5,66.3,71.4
		L66.3,71.4z M93.9,75.7c-0.5,0.7-1,3.2-0.3,3.8c0.1,0.1,0.4,0.2,0.5,0.1c0.9-0.4,1.2-3,0.6-3.8C94.4,75.4,94.2,75.4,93.9,75.7z
		 M92.3,78.9c-0.2-1,0-2.2,0.4-3.1c0.3-0.6,0.4-0.5-0.3-0.5c-0.5-0.1-0.9-0.2-1.4,0.2c-0.7,0.5-0.9,1.9-0.8,2.8c0.1,0.4,0.2,1,0.7,1
		l1,0.1C92.6,79.4,92.4,79.5,92.3,78.9z M42.8,49.6l11.6,0.7c0.2,0,0.4,0,0.6,0.1c0.5,0.1,0.9,0.4,1.2,0.8c0.4,0.5,0.2,0.5,0.6,0
		c0.5-0.7,1-1,1.7-1.4c1-0.6,1.5-1,2.2-2L87.4,8c1.5-2.2,0.8-2-1.4-1.7l-9.7,1.4c-1.8,0.3-2.4,1-3.5,2.4L45.7,47
		c-0.9,1.2-2.4,1.2-3.3,2.3C42.1,49.7,42.4,49.6,42.8,49.6z M89.1,6.9c-0.2,0.6-0.5,1.1-0.9,1.6L61.4,48.3c-0.7,1.1-1.4,1.7-2.5,2.4
		c-0.5,0.3-1,0.6-1.3,1.1c-0.5,0.7-0.5,1.4-0.3,2c0.3,0.6,0.8,1,1.4,1.1c2.2,0.5,2.5-1.8,3.4-3.1l28.1-40.9c0.5-0.7,0.8-1.4,0.8-2
		c0.1-1.1-0.5-1.9-1.4-2.3C89.1,6.3,89.2,6.5,89.1,6.9z"/>
</g>
</svg>
