<?xml version="1.0" encoding="utf-8"?>
<!-- Generator: Adobe Illustrator 26.0.2, SVG Export Plug-In . SVG Version: 6.00 Build 0)  -->
<svg version="1.1" id="Layer_1" xmlns="http://www.w3.org/2000/svg" xmlns:xlink="http://www.w3.org/1999/xlink" x="0px" y="0px"
	 viewBox="0 0 100 100" style="enable-background:new 0 0 100 100;" xml:space="preserve">
<g>
	<path d="M82.7,28.6C82.7,28.6,82.6,28.6,82.7,28.6l-32-14.1c-0.2-0.1-0.5-0.1-0.8,0l-32.5,14c0,0-0.1,0.1-0.1,0.1
		c-0.2,0.2-0.4,0.5-0.4,0.8v41.4c0,0.4,0.2,0.7,0.6,0.9l32.2,13.8c0.1,0.1,0.2,0.1,0.4,0.1c0.1,0,0.4-0.1,0.4-0.1l32.2-13.8
		c0.3-0.2,0.6-0.5,0.6-0.9V29.4C83.1,29.1,82.9,28.8,82.7,28.6z M49,83.2l-30.3-13V30.8l30.3,13V83.2z M50,42.2L20.2,29.4l30.1-13
		l29.5,13L50,42.2z M81.2,70.2l-30.3,13V43.9l30.3-13V70.2z"/>
	<path d="M27.1,45.8L38,50.5c0.4,0.2,0.9,0.3,1.3,0.3c0.6,0,1.3-0.2,1.8-0.6c0.9-0.6,1.5-1.6,1.5-2.8c0-1.3-0.8-2.5-2-3l-10.9-4.7
		c-1-0.4-2.2-0.3-3.1,0.3c-0.9,0.6-1.5,1.7-1.5,2.8C25.1,44.1,25.9,45.3,27.1,45.8z M27.6,41.6c0.4-0.3,0.9-0.3,1.4-0.1l10.9,4.7
		c0.5,0.2,0.9,0.7,0.9,1.3c0,0.5-0.2,0.9-0.6,1.2s-0.9,0.3-1.4,0.1l-10.9-4.7c-0.5-0.2-0.9-0.7-0.9-1.3C27,42.3,27.2,41.8,27.6,41.6
		z"/>
	<path d="M59.8,49.8c0.5,0.4,1.2,0.5,1.8,0.5c0.5,0,0.9-0.1,1.3-0.3l10.9-4.7c1.2-0.5,2-1.7,2-3c0-1.1-0.6-2.2-1.5-2.8
		s-2.1-0.7-3.1-0.3L60.3,44c-1.2,0.5-2,1.7-2,3C58.2,48.1,58.8,49.2,59.8,49.8z M61,45.7L71.9,41c0.2-0.1,0.4-0.1,0.6-0.1
		c0.3,0,0.5,0.1,0.8,0.2c0.4,0.3,0.7,0.7,0.7,1.2c0,0.6-0.3,1.1-0.9,1.3l-10.9,4.7c-0.4,0.2-0.9,0.2-1.4-0.1
		c-0.4-0.3-0.6-0.7-0.6-1.2C60.1,46.4,60.5,45.9,61,45.7z"/>
</g>
</svg>
