<?xml version="1.0" encoding="UTF-8"?>
<svg id="Layer_1" data-name="Layer 1" xmlns="http://www.w3.org/2000/svg" viewBox="0 0 512 512">
  <path d="M227,46.34c-6.13,0-11.1,4.97-11.1,11.1v47.55c0,6.13,4.97,11.1,11.1,11.1s11.1-4.97,11.1-11.1V57.44c0-6.13-4.97-11.1-11.1-11.1h0Zm100.36,.04c-6.12,0-11.09,4.96-11.09,11.09v47.55c0,6.12,4.96,11.09,11.09,11.09s11.09-4.96,11.09-11.09V57.47c0-6.12-4.96-11.09-11.09-11.09h0Zm-204.96,0c-6.13,0-11.1,4.97-11.1,11.1v47.55c0,6.13,4.97,11.1,11.1,11.1s11.1-4.97,11.1-11.1V57.47c0-6.13-4.97-11.1-11.1-11.1h0Zm296.83-.05c-6.15,0-11.14,4.99-11.14,11.14v47.55c0,6.15,4.99,11.14,11.14,11.14s11.14-4.99,11.14-11.14V57.46c0-6.15-4.99-11.14-11.14-11.14h0ZM98.75,173.41c-2.87,0-5.62,1.14-7.65,3.17-2.03,2.03-3.17,4.78-3.17,7.65v32.45c0,2.87,1.14,5.62,3.17,7.65,2.03,2.03,4.78,3.17,7.65,3.17h46.44c5.98,0,10.82-4.85,10.82-10.82v-32.45c0-5.98-4.85-10.82-10.82-10.82h-46.44Zm98.04,0c-2.87,0-5.62,1.14-7.65,3.17-2.03,2.03-3.17,4.78-3.17,7.65v32.45c0,2.87,1.14,5.62,3.17,7.65,2.03,2.03,4.78,3.17,7.65,3.17h46.44c5.98,0,10.82-4.85,10.82-10.82v-32.45c0-5.98-4.85-10.82-10.82-10.82h-46.44Zm98.37,0c-2.87,0-5.62,1.14-7.65,3.17-2.03,2.03-3.17,4.78-3.17,7.65v32.45c0,2.87,1.14,5.62,3.17,7.65,2.03,2.03,4.78,3.17,7.65,3.17h46.43c5.98,0,10.82-4.85,10.82-10.82v-32.45c0-5.98-4.85-10.82-10.82-10.82h-46.43Zm98.39,0c-2.87,0-5.62,1.14-7.65,3.17-2.03,2.03-3.17,4.78-3.17,7.65v32.45c0,2.87,1.14,5.62,3.17,7.65,2.03,2.03,4.78,3.17,7.65,3.17h46.43c5.98,0,10.82-4.85,10.82-10.82v-32.45c0-5.98-4.85-10.82-10.82-10.82h-46.43ZM98.75,253.96c-2.87,0-5.62,1.14-7.65,3.17-2.03,2.03-3.17,4.78-3.17,7.65v32.45c0,2.87,1.14,5.62,3.17,7.65s4.78,3.17,7.65,3.17h46.44c5.98,0,10.82-4.85,10.82-10.82v-32.45c0-5.98-4.85-10.82-10.82-10.82h-46.44Zm98.04,0c-2.87,0-5.62,1.14-7.65,3.17-2.03,2.03-3.17,4.78-3.17,7.65v32.45c0,2.87,1.14,5.62,3.17,7.65,2.03,2.03,4.78,3.17,7.65,3.17h46.44c5.98,0,10.82-4.85,10.82-10.82v-32.45c0-5.98-4.85-10.82-10.82-10.82h-46.44Zm98.37,0c-2.87,0-5.62,1.14-7.65,3.17-2.03,2.03-3.17,4.78-3.17,7.65v32.45c0,2.87,1.14,5.62,3.17,7.65,2.03,2.03,4.78,3.17,7.65,3.17h46.43c5.98,0,10.82-4.85,10.82-10.82v-32.45c0-5.98-4.85-10.82-10.82-10.82h-46.43Zm98.39,0c-2.87,0-5.62,1.14-7.65,3.17-2.03,2.03-3.17,4.78-3.17,7.65v32.45c0,2.87,1.14,5.62,3.17,7.65,2.03,2.03,4.78,3.17,7.65,3.17h46.43c5.98,0,10.82-4.85,10.82-10.82v-32.45c0-5.98-4.85-10.82-10.82-10.82h-46.43ZM98.75,335.76c-2.87,0-5.62,1.14-7.65,3.17-2.03,2.03-3.17,4.78-3.17,7.65v32.45c0,2.87,1.14,5.62,3.17,7.65,2.03,2.03,4.78,3.17,7.65,3.17h46.44c5.98,0,10.82-4.85,10.82-10.82v-32.45c0-5.98-4.85-10.82-10.82-10.82h-46.44Zm98.04,0c-2.87,0-5.62,1.14-7.65,3.17-2.03,2.03-3.17,4.78-3.17,7.65v32.45c0,2.87,1.14,5.62,3.17,7.65,2.03,2.03,4.78,3.17,7.65,3.17h46.44c5.98,0,10.82-4.85,10.82-10.82v-32.45c0-5.98-4.85-10.82-10.82-10.82h-46.44Zm98.37,0c-2.87,0-5.62,1.14-7.65,3.17-2.03,2.03-3.17,4.78-3.17,7.65v32.45c0,2.87,1.14,5.62,3.17,7.65,2.03,2.03,4.78,3.17,7.65,3.17h46.43c5.98,0,10.82-4.85,10.82-10.82v-32.45c0-5.98-4.85-10.82-10.82-10.82h-46.43Zm98.39,0c-2.87,0-5.62,1.14-7.65,3.17-2.03,2.03-3.17,4.78-3.17,7.65v32.45c0,2.87,1.14,5.62,3.17,7.65,2.03,2.03,4.78,3.17,7.65,3.17h46.43c5.98,0,10.82-4.85,10.82-10.82v-32.45c0-5.98-4.85-10.82-10.82-10.82h-46.43Zm90.53-176.49l.03,198.84h0c-.93,19.45-2.17,32.62-8.1,38.56-5.82,5.83-18.3,6.65-37.29,6.96l-339.18-.34h0c-19.65-.12-32.52-.84-38.28-6.62-5.82-5.84-6.7-19.05-7.09-38.9h0l.39-198.5H484.08ZM100.47,74.48c-.12,0-.24,0-.36,0-16.2,.62-38.76,.91-51.13,13.18-12.44,12.35-12.48,34.69-12.94,50.57,0,.08,0,.17,0,.25l-.43,219.25c0,.07,0,.13,0,.19,.31,16.37,.13,39.42,12.49,51.83,12.44,12.49,35.28,11.98,51.32,12.07h.05l339.3,.34h.01s.1,0,.14,0c15.64-.25,37.82,0,50.2-12.4,12.21-12.24,12.73-34.78,13.51-51.03v-.1c.01-.15,.01-.3,.01-.44l-.03-219.29h0c.13-16.19,.97-39.31-11.6-51.83-12.49-12.44-35.94-12.05-52.55-12.23-.03,0-.07,0-.1,0h-4.35v30.17c0,8.17-6.62,14.79-14.79,14.79s-14.79-6.62-14.79-14.79v-30.13l-62.31,.06v30.08c0,8.16-6.62,14.78-14.78,14.78s-14.78-6.62-14.78-14.78v-30.05l-60.46,.06-10.29-.04v30c0,8.19-6.64,14.83-14.83,14.83s-14.83-6.64-14.83-14.83v-30.11l-74.95-.27v30.41c0,8.18-6.63,14.82-14.82,14.82s-14.82-6.63-14.82-14.82v-30.52l-7.08-.02h-.03ZM32.44,109.28c-3.69,1.7-7.04,3.88-9.87,6.68-12.44,12.35-12.48,34.69-12.94,50.57,0,.08,0,.17,0,.25l-.43,219.25c0,.07,0,.13,0,.19,.31,16.37,.13,39.42,12.49,51.83,12.44,12.48,35.27,11.98,51.32,12.07h.05l339.3,.34h.01s.1,0,.15,0c15.64-.25,37.82,0,50.2-12.4,3.04-3.04,5.35-6.72,7.12-10.78h-23.36c-6.65,3.74-18.07,4.37-34.19,4.64l-339.19-.34h0c-19.65-.12-32.52-.84-38.28-6.62-5.82-5.84-6.7-19.05-7.08-38.9h0l.43-219.04h0c.43-15.07,1.13-26.18,4.27-33.12h0v-24.62h0Zm0,0" fill="#22323f"/>
</svg>