<svg id="Layer_1" data-name="Layer 1" xmlns="http://www.w3.org/2000/svg" viewBox="0 0 512 512">
  <path d="M443.29,394.76H127.13v1a42,42,0,0,1-3,15.43l0,.06-.28.67-.27.63,0,.09a42.69,42.69,0,0,1-5.38,9c-.36.46-.73.91-1.11,1.36h342.6a27.85,27.85,0,0,0,6.67-.78A27.5,27.5,0,0,0,487,395.73h0l0-1Zm-324.64-14.9H435.83V63.15H387.44v9.37a7.45,7.45,0,1,1-14.9,0V63.15H320.83v9.37a7.45,7.45,0,1,1-14.9,0V63.15H254.18v9.37a7.46,7.46,0,0,1-14.91,0V63.15H187.54v9.37a7.45,7.45,0,1,1-14.9,0V63.15H120.93v9.37a7.45,7.45,0,0,1-14.9,0V63.15H57.63V401.33A26.89,26.89,0,0,0,67,416.55a28.31,28.31,0,0,0,18,6.45h.22c.49,0,1,0,1.44,0a29,29,0,0,0,4.85-.78,27.56,27.56,0,0,0,14-8.45q.52-.6,1-1.23a27.37,27.37,0,0,0,5.79-16.77,27.9,27.9,0,0,0-.69-6.16,7.63,7.63,0,0,1-.35-2.26,7.46,7.46,0,0,1,7.45-7.45ZM85.09,437.91h-.16A43.27,43.27,0,0,1,57.55,428,41.76,41.76,0,0,1,43,403.94a7.69,7.69,0,0,1-.28-2.05V63.15H25V465.66H435.83V437.91H85.09Zm374.6,0h-8.95v35.21a7.46,7.46,0,0,1-7.45,7.45H17.55a7.46,7.46,0,0,1-7.45-7.45V55.7a7.45,7.45,0,0,1,7.45-7.45H106V38.88a7.45,7.45,0,0,1,14.9,0v9.37h51.71V38.88a7.45,7.45,0,1,1,14.9,0v9.37h51.73V38.88a7.46,7.46,0,0,1,14.91,0v9.37h51.75V38.88a7.45,7.45,0,1,1,14.9,0v9.37h51.71V38.88a7.45,7.45,0,1,1,14.9,0v9.37h55.85a7.45,7.45,0,0,1,7.45,7.45V379.86h42.67v0a7.42,7.42,0,0,1,7.22,5.66,42.25,42.25,0,0,1,1.27,10.19h0a42.18,42.18,0,0,1-42.18,42.18ZM99.57,132.14a7.45,7.45,0,0,1,0-14.9H393.89a7.45,7.45,0,0,1,0,14.9ZM271.69,341h20.08V320.89H271.69V341Zm27.53,14.91h-35a7.46,7.46,0,0,1-7.46-7.46v-35a7.45,7.45,0,0,1,7.46-7.45h35a7.44,7.44,0,0,1,7.45,7.45v35a7.45,7.45,0,0,1-7.45,7.46ZM201.7,341h20.09V320.89H201.7V341Zm27.54,14.91h-35a7.46,7.46,0,0,1-7.45-7.46v-35a7.45,7.45,0,0,1,7.45-7.45h35a7.45,7.45,0,0,1,7.46,7.45v35a7.46,7.46,0,0,1-7.46,7.46ZM131.72,341h20.09V320.89H131.72V341Zm27.55,14.91h-35a7.46,7.46,0,0,1-7.45-7.46v-35a7.45,7.45,0,0,1,7.45-7.45h35a7.45,7.45,0,0,1,7.45,7.45v35a7.46,7.46,0,0,1-7.45,7.46ZM264.24,236h35a7.45,7.45,0,0,1,7.45,7.45v35a7.45,7.45,0,0,1-7.45,7.46h-35a7.46,7.46,0,0,1-7.46-7.46v-35a7.46,7.46,0,0,1,7.46-7.45Zm27.53,14.91H271.69V271h20.08V250.91ZM194.25,236h35a7.46,7.46,0,0,1,7.46,7.45v35a7.46,7.46,0,0,1-7.46,7.46h-35a7.46,7.46,0,0,1-7.45-7.46v-35a7.46,7.46,0,0,1,7.45-7.45Zm27.54,14.91H201.7V271h20.09V250.91ZM124.27,236h35a7.46,7.46,0,0,1,7.45,7.45v35a7.46,7.46,0,0,1-7.45,7.46h-35a7.46,7.46,0,0,1-7.45-7.46v-35a7.46,7.46,0,0,1,7.45-7.45Zm27.54,14.91H131.72V271h20.09V250.91ZM264.24,166h35a7.45,7.45,0,0,1,7.45,7.45v35a7.45,7.45,0,0,1-7.45,7.45h-35a7.46,7.46,0,0,1-7.46-7.45v-35a7.46,7.46,0,0,1,7.46-7.45Zm27.53,14.91H271.69V201h20.08V180.93ZM194.25,166h35a7.46,7.46,0,0,1,7.46,7.45v35a7.46,7.46,0,0,1-7.46,7.45h-35a7.46,7.46,0,0,1-7.45-7.45v-35a7.46,7.46,0,0,1,7.45-7.45Zm27.54,14.91H201.7V201h20.09V180.93ZM124.27,166h35a7.46,7.46,0,0,1,7.45,7.45v35a7.46,7.46,0,0,1-7.45,7.45h-35a7.46,7.46,0,0,1-7.45-7.45v-35a7.46,7.46,0,0,1,7.45-7.45Zm27.54,14.91H131.72V201h20.09V180.93ZM341.66,341h20.09V320.89H341.66V341Zm27.54,14.91h-35a7.46,7.46,0,0,1-7.45-7.46v-35a7.45,7.45,0,0,1,7.45-7.45h35a7.45,7.45,0,0,1,7.45,7.45v35a7.46,7.46,0,0,1-7.45,7.46ZM334.21,236h35a7.46,7.46,0,0,1,7.45,7.45v35a7.46,7.46,0,0,1-7.45,7.46h-35a7.46,7.46,0,0,1-7.45-7.46v-35a7.46,7.46,0,0,1,7.45-7.45Zm27.54,14.91H341.66V271h20.09V250.91ZM334.21,166h35a7.46,7.46,0,0,1,7.45,7.45v35a7.46,7.46,0,0,1-7.45,7.45h-35a7.46,7.46,0,0,1-7.45-7.45v-35a7.46,7.46,0,0,1,7.45-7.45Zm27.54,14.91H341.66V201h20.09V180.93Z"/>
</svg>
