<svg id="Layer_1" data-name="Layer 1" xmlns="http://www.w3.org/2000/svg" viewBox="0 0 512 512">
  <g>
    <g>
      <g>
        <line x1="143.93" y1="180.49" x2="143.93" y2="374.73" fill="none" stroke="#000" stroke-linejoin="round" stroke-width="13.08"/>
        <line x1="218.64" y1="180.49" x2="218.64" y2="374.73" fill="none" stroke="#000" stroke-linejoin="round" stroke-width="13.08"/>
        <line x1="293.36" y1="180.49" x2="293.36" y2="374.73" fill="none" stroke="#000" stroke-linejoin="round" stroke-width="13.08"/>
      </g>
      <line x1="368.08" y1="180.49" x2="368.08" y2="374.73" fill="none" stroke="#000" stroke-linejoin="round" stroke-width="13.08"/>
    </g>
    <line x1="504.73" y1="462.16" x2="7.27" y2="462.16" fill="none" stroke="#000" stroke-linecap="round" stroke-linejoin="round" stroke-width="13.08"/>
    <polygon points="106.3 177.49 405.87 177.49 405.88 137.61 256.15 49.84 106.3 137.46 106.3 177.49" fill="none" stroke="#000" stroke-linecap="round" stroke-linejoin="round" stroke-width="13.08"/>
    <line x1="478.39" y1="411.14" x2="33.61" y2="411.14" fill="none" stroke="#000" stroke-linecap="round" stroke-linejoin="round" stroke-width="13.08"/>
    <g>
      <g>
        <line x1="69.28" y1="302.45" x2="69.28" y2="374.73" fill="none" stroke="#000" stroke-linejoin="round" stroke-width="13.08"/>
        <polyline points="112.92 251.22 41.14 251.22 41.14 298.29 112.92 298.29" fill="none" stroke="#000" stroke-linejoin="round" stroke-width="13.08"/>
      </g>
      <g>
        <line x1="442.85" y1="302.45" x2="442.85" y2="374.73" fill="none" stroke="#000" stroke-linejoin="round" stroke-width="13.08"/>
        <polyline points="399.08 251.22 470.86 251.22 470.86 298.29 399.08 298.29" fill="none" stroke="#000" stroke-linejoin="round" stroke-width="13.08"/>
      </g>
    </g>
  </g>
</svg>
