<svg id="Layer_1" data-name="Layer 1" xmlns="http://www.w3.org/2000/svg" viewBox="0 0 512 512">
  <path d="M408.36,117.31l37.07,0L502,68l-53.62-4.35L445.43,10l-50,57.24V103l-9.69,9.73a224.14,224.14,0,0,0-310,323.63,224.14,224.14,0,0,0,323.68-310ZM439,277.82c0,113-91.89,204.85-204.85,204.85S29.34,390.78,29.34,277.82,121.24,73,234.19,73a204.08,204.08,0,0,1,137.86,53.46l-51.9,52.11a130.81,130.81,0,0,0-86-32.1c-72.44,0-131.38,58.94-131.38,131.38s58.94,131.39,131.38,131.39,131.39-58.94,131.39-131.39a130.81,130.81,0,0,0-31.81-85.61l51.91-52.14A204,204,0,0,1,439,277.82Zm-173.19,0a31.7,31.7,0,1,1-16.76-27.92l-25.36,25.46A9.65,9.65,0,0,0,237.4,289l25.14-25.24A31.52,31.52,0,0,1,265.85,277.82Zm-2.78-41.95a51,51,0,1,0,13.53,13.74l43.51-43.69a112.19,112.19,0,1,1-13.6-13.67Z" fill="#333"/>
</svg>
