<svg id="Layer_1" data-name="Layer 1" xmlns="http://www.w3.org/2000/svg" viewBox="0 0 512 512">
  <g>
    <path d="M464.5,268.46A7.37,7.37,0,1,0,456,280.52c13,9.12,28.47,23.77,28.47,41.92,0,47.94-104.64,88.44-228.5,88.44S27.5,370.38,27.5,322.44C27.5,304.3,43,289.64,56,280.52a7.37,7.37,0,1,0-8.46-12.06c-22.73,15.94-34.75,34.6-34.75,54,0,57.86,106.85,103.19,243.24,103.19S499.24,380.3,499.24,322.44C499.24,303.06,487.23,284.4,464.5,268.46Z" fill="#1a171b"/>
    <path d="M34.87,241.15H75.43v59a22.13,22.13,0,0,0,22.1,22.11H117.2a22,22,0,0,0,14.74-5.75,22,22,0,0,0,14.74,5.75h19.66a22.14,22.14,0,0,0,22.11-22.11v-59H323.57v59a22.13,22.13,0,0,0,22.11,22.11h19.65a22,22,0,0,0,14.75-5.75,22,22,0,0,0,14.74,5.75h19.66a22.14,22.14,0,0,0,22.11-22.11v-59h40.54a7.37,7.37,0,0,0,7.37-7.36v-59a7.38,7.38,0,0,0-7.37-7.38H436.59v-59a22.13,22.13,0,0,0-22.11-22.1H394.82a21.94,21.94,0,0,0-14.74,5.74,22,22,0,0,0-14.75-5.74H345.68a22.13,22.13,0,0,0-22.11,22.1v59H188.45v-59a22.13,22.13,0,0,0-22.11-22.1H146.68a21.94,21.94,0,0,0-14.74,5.74,22,22,0,0,0-14.74-5.74H97.53a22.13,22.13,0,0,0-22.1,22.1v59H34.87a7.38,7.38,0,0,0-7.37,7.38v59A7.37,7.37,0,0,0,34.87,241.15Zm434.88-59v44.23H436.59V182.18Zm-74.93-81.07h19.66a7.38,7.38,0,0,1,7.37,7.36V300.12a7.37,7.37,0,0,1-7.37,7.36H394.82a7.36,7.36,0,0,1-7.37-7.36V108.47A7.37,7.37,0,0,1,394.82,101.11Zm-56.52,7.36a7.38,7.38,0,0,1,7.38-7.36h19.65a7.38,7.38,0,0,1,7.38,7.36V300.12a7.37,7.37,0,0,1-7.38,7.36H345.68a7.37,7.37,0,0,1-7.38-7.36Zm-14.73,73.71v44.23H188.45V182.18ZM146.68,101.11h19.66a7.38,7.38,0,0,1,7.37,7.36V300.12a7.37,7.37,0,0,1-7.37,7.36H146.68a7.36,7.36,0,0,1-7.37-7.36V108.47A7.37,7.37,0,0,1,146.68,101.11Zm-56.51,7.36a7.37,7.37,0,0,1,7.36-7.36H117.2a7.38,7.38,0,0,1,7.37,7.36V300.12a7.37,7.37,0,0,1-7.37,7.36H97.53a7.36,7.36,0,0,1-7.36-7.36ZM42.25,182.18H75.43v44.23H42.25Z" fill="#1a171b"/>
  </g>
</svg>
