<svg id="Layer_1" data-name="Layer 1" xmlns="http://www.w3.org/2000/svg" viewBox="0 0 512 512">
  <g>
    <path d="M149.6,20.69V491.34H119.14A26.14,26.14,0,0,1,93,465.19V419.7h13.73a13.08,13.08,0,0,0,0-26.15H93v-49h13.73a13.07,13.07,0,1,0,0-26.14H93v-49h13.73a13.08,13.08,0,0,0,0-26.15H93v-49h13.73a13.08,13.08,0,0,0,0-26.15H93V119h13.73a13.08,13.08,0,0,0,0-26.15H93v-46a26.06,26.06,0,0,1,26.15-26.15Z" fill="none" stroke="#000" stroke-linecap="round" stroke-linejoin="round" stroke-width="11"/>
    <path d="M149.61,20.66H419.8a26.15,26.15,0,0,1,26.15,26.15V465.16a26.15,26.15,0,0,1-26.15,26.15H149.61a0,0,0,0,1,0,0V20.66A0,0,0,0,1,149.61,20.66Z" fill="none" stroke="#000" stroke-linecap="round" stroke-linejoin="round" stroke-width="11"/>
    <g>
      <rect x="205.9" y="92.84" width="183.75" height="60" fill="none" stroke="#000" stroke-linecap="round" stroke-linejoin="round" stroke-width="11"/>
      <line x1="206.84" y1="184.08" x2="389.65" y2="184.08" fill="none" stroke="#000" stroke-linecap="round" stroke-linejoin="round" stroke-width="11"/>
      <line x1="206.84" y1="211.68" x2="389.65" y2="211.68" fill="none" stroke="#000" stroke-linecap="round" stroke-linejoin="round" stroke-width="11"/>
      <line x1="206.84" y1="239.28" x2="389.65" y2="239.28" fill="none" stroke="#000" stroke-linecap="round" stroke-linejoin="round" stroke-width="11"/>
    </g>
    <g>
      <path d="M119.79,105.93A13.12,13.12,0,0,1,106.72,119H79.13a13.08,13.08,0,0,1,0-26.15h27.59A13.11,13.11,0,0,1,119.79,105.93Z" fill="none" stroke="#000" stroke-linecap="round" stroke-linejoin="round" stroke-width="11"/>
      <path d="M119.79,181.11a13.11,13.11,0,0,1-13.07,13.07H79.13a13.08,13.08,0,0,1,0-26.15h27.59A13.11,13.11,0,0,1,119.79,181.11Z" fill="none" stroke="#000" stroke-linecap="round" stroke-linejoin="round" stroke-width="11"/>
      <path d="M119.79,256.28a13.11,13.11,0,0,1-13.07,13.07H79.13a13.08,13.08,0,0,1,0-26.15h27.59A13.12,13.12,0,0,1,119.79,256.28Z" fill="none" stroke="#000" stroke-linecap="round" stroke-linejoin="round" stroke-width="11"/>
      <path d="M119.79,331.45a13.11,13.11,0,0,1-13.07,13.07H79.13a13.07,13.07,0,0,1,0-26.14h27.59A13,13,0,0,1,119.79,331.45Z" fill="none" stroke="#000" stroke-linecap="round" stroke-linejoin="round" stroke-width="11"/>
      <path d="M119.79,406.62a13.12,13.12,0,0,1-13.07,13.08H79.13a13.08,13.08,0,0,1,0-26.15h27.59A13,13,0,0,1,119.79,406.62Z" fill="none" stroke="#000" stroke-linecap="round" stroke-linejoin="round" stroke-width="11"/>
    </g>
  </g>
</svg>
