<svg id="Layer_1" data-name="Layer 1" xmlns="http://www.w3.org/2000/svg" viewBox="0 0 512 512">
  <path d="M414.6,421.17a6.88,6.88,0,0,1-3.83-.77c-1.53-.76-3.06-3-3.82-4.58L330.48,126c-.76-3.82,1.53-8.41,5.35-9.17l86.41-23.71c2.3-.76,3.83,0,6.12.77,1.53.76,3.06,3.06,3.82,4.59l44.35,169v.76L485,299.59v.76l6.88,27.53a2.81,2.81,0,0,1,.76,2.29L501,361.52v2.3l6.12,24.47c.77,3.82-1.53,8.41-5.35,9.17l-86.41,23.71Zm2.29-29.06L420,403.58l71.88-19.12L488.77,373l-71.88,19.12Zm-7.65-31.35,4.59,16.82,71.88-19.11-4.59-16.83-71.88,19.12Zm-8.41-30.59,3.82,15.3,71.88-19.12-3.82-15.29-71.88,19.11Zm-8.41-31.35L397,315.64l71.88-19.11L464.3,279.7l-71.88,19.12ZM347.3,128.3l41.3,155.23,71.88-19.12-41.3-155.23L347.3,128.3ZM318.25,421.17H228a7.22,7.22,0,0,1-7.64-7.65v-315A7.22,7.22,0,0,1,228,90.83h90.24a7.22,7.22,0,0,1,7.64,7.65v315a8.22,8.22,0,0,1-7.64,7.65Zm-82.59-15.29H310.6V344.7H235.66v61.18Zm0-77.24H310.6V312.59H235.66v16.05Zm0-31.35H310.6V262.88H235.66v34.41Zm0-49.7H310.6V149.71H235.66v97.88Zm0-113.94H310.6V105.36H235.66v28.29Zm-26,287.52H119.43a7.23,7.23,0,0,1-7.65-7.65v-315a7.23,7.23,0,0,1,7.65-7.65h90.23a7.23,7.23,0,0,1,7.65,7.65v315a7.66,7.66,0,0,1-7.65,7.65Zm-82.58-15.29H202V344.7H127.08v61.18Zm0-77.24H202V312.59H127.08v16.05Zm0-31.35H202V262.88H127.08v34.41Zm0-49.7H202V149.71H127.08v97.88Zm0-113.94H202V105.36H127.08v28.29ZM102.61,421.17H12.38a7.23,7.23,0,0,1-7.65-7.65v-315a7.23,7.23,0,0,1,7.65-7.65h90.23a7.23,7.23,0,0,1,7.65,7.65v315a7.66,7.66,0,0,1-7.65,7.65ZM20.79,405.88H95.73V344.7H20.79v61.18Zm0-77.24H95.73V312.59H20.79v16.05Zm0-31.35H95.73V262.88H20.79v34.41Zm0-49.7H95.73V149.71H20.79v97.88Zm0-113.94H95.73V105.36H20.79v28.29Zm377,137.64c-3.06,0-6.12-2.29-7.64-5.35L356.48,140.53c-.77-3.82,1.53-8.41,5.35-9.17l43.59-11.47c3.82-.77,8.41,1.53,9.17,5.35l35.18,125.41c.76,2.29,0,3.82-.77,6.11-.76,1.53-3.05,3.06-4.58,3.83-11.79,3-36.34,10.7-46.65,10.7Zm-23.7-127.7,29.05,110.12L433,246.06,402.36,136l-28.29,7.64Z" fill-rule="evenodd"/>
</svg>
