<svg id="Layer_1" data-name="Layer 1" xmlns="http://www.w3.org/2000/svg" viewBox="0 0 512 512">
  <path d="M150.41,24.45a7.42,7.42,0,1,0-14.83-.54,4.86,4.86,0,0,0,0,.54V83.8a7.42,7.42,0,1,0,14.83.54,4.86,4.86,0,0,0,0-.54V61.54H188a17,17,0,0,0-.77,4.42l-3,86.43a7.31,7.31,0,0,0,.45,2.78l27.3,76c-.74,5.75-1.89,21.88,5.79,35.13-3.34,7.67-9.61,24.44-7.2,38.09L153.35,468.1a18.21,18.21,0,1,0,33.38,14.58h0c23.89-44.77,54.05-96.45,68.07-108.8,14,12.39,44.18,64,68.07,108.8a18.21,18.21,0,1,0,33.38-14.58L298.79,304.36c2.41-13.61-3.71-30.38-7.19-38.09,7.68-13.24,6.53-29.38,5.78-35.13l27.38-76a7.12,7.12,0,0,0,.44-2.78L322.2,66a16.88,16.88,0,0,0-.82-4.45h55.31V83.8a7.42,7.42,0,1,0,14.84,0h0V24.45a7.42,7.42,0,1,0-14.84,0h0V46.71H150.41ZM342,473a3.38,3.38,0,0,1-6.16,2.7c-19.32-36.24-54.45-99.26-72.59-114a13.63,13.63,0,0,0-17.14,0c-18.14,14.84-53.27,77.9-72.59,114a3.38,3.38,0,0,1-6.16-2.7l56-160.73H285.9ZM232,261.15c-6.19-8.12-6.15-20-5.67-26,8.38-3.71,32-11.83,56.68,0,.48,5.86.48,17.73-5.68,26a7.43,7.43,0,0,0-.74,7.83,80,80,0,0,1,8,28.45h-60a78.77,78.77,0,0,1,8-28.49A7.43,7.43,0,0,0,232,261.15ZM289.33,61.54a17.3,17.3,0,0,0-.7,3.42c-.3,3.15-.63,6.15-1,9.2a278,278,0,0,0-2.18,35.9c0,13.62-3.19,18-4.57,19.22a4,4,0,0,1-1.07.7,39.17,39.17,0,0,0-50.67-.26l-.49-.29c-1.11-.89-4.78-5-4.78-19.4a276.4,276.4,0,0,0-2.19-35.91c-.33-3-.7-6.05-1-9.2a17.23,17.23,0,0,0-.71-3.41ZM278.84,160a24.49,24.49,0,1,1-42.63-16.44h0a29.28,29.28,0,0,1,16.29-6.64h3.71a28.43,28.43,0,0,1,14.84,5.53A24.43,24.43,0,0,1,278.84,160ZM202,66.44a2,2,0,0,1,3.93-.75,1.89,1.89,0,0,1,0,.75c.3,3.26.67,6.38,1,9.53A263,263,0,0,1,209,110.21c0,15.06,3.49,25.49,10.35,31l.34.23a39.32,39.32,0,1,0,69.4.33l.82-.56c6.86-5.49,10.35-16,10.35-31a264.75,264.75,0,0,1,2.22-34.35c.37-3.15.71-6.23,1-9.53a2,2,0,0,1,3.94,0l3,85L285.7,220.16a83,83,0,0,0-62,0L199,151.46Z"/>
  <path d="M113.32,91.22a7.42,7.42,0,0,0,7.42-7.42V24.45a7.42,7.42,0,0,0-14.84,0V83.8a7.42,7.42,0,0,0,7.42,7.42Z"/>
  <path d="M421.21,83.8V24.45a7.42,7.42,0,1,0-14.84,0h0V83.8a7.42,7.42,0,1,0,14.84,0Z"/>
  <path d="M111.47,242.68h79.12a7.42,7.42,0,1,0,0-14.84H111.47a7.42,7.42,0,0,0,0,14.84Z"/>
  <path d="M67,264.93a7.42,7.42,0,0,0,7.42,7.42H190.59a7.42,7.42,0,0,0,0-14.84H74.37A7.42,7.42,0,0,0,67,264.93Z"/>
  <path d="M198,294.61a7.42,7.42,0,0,0-7.42-7.42H111.47a7.42,7.42,0,0,0,0,14.84h79.12A7.43,7.43,0,0,0,198,294.61Z"/>
  <path d="M319.2,242.68h79.12a7.42,7.42,0,1,0,0-14.84H319.2a7.42,7.42,0,0,0,0,14.84Z"/>
  <path d="M442.83,264.93a7.42,7.42,0,0,0-7.42-7.42H319.2a7.42,7.42,0,0,0,0,14.84H435.41A7.42,7.42,0,0,0,442.83,264.93Z"/>
  <path d="M405.74,294.61a7.42,7.42,0,0,0-7.42-7.42H319.2a7.42,7.42,0,0,0,0,14.84h79.12A7.42,7.42,0,0,0,405.74,294.61Z"/>
</svg>
