<svg id="Layer_1" data-name="Layer 1" xmlns="http://www.w3.org/2000/svg" viewBox="0 0 512 512">
  <g>
    <path d="M255.36,496.54A238.81,238.81,0,0,1,17.85,282.8a14.87,14.87,0,1,1,29.58-3.17,209.13,209.13,0,1,0,186-229.91,206.82,206.82,0,0,0-83.56,27.37,14.92,14.92,0,0,1-15.06-25.74A239,239,0,1,1,280.51,495.2a232.22,232.22,0,0,1-25.16,1.34Z"/>
    <path d="M76.54,116.82l.87-91A10.43,10.43,0,0,1,95.3,18.59l90.16,91.89a10.44,10.44,0,0,1-7.55,17.75l-91-.87h0a10.43,10.43,0,0,1-10.34-10.53Z"/>
    <path d="M256,271a14.87,14.87,0,0,1-14.92-15V127.7a14.92,14.92,0,1,1,29.83,0V256A14.87,14.87,0,0,1,256,271Z"/>
    <path d="M370.77,328.7a15,15,0,0,1-6.63-1.59L249.35,269.38h0a14.91,14.91,0,1,1,13.37-26.65l114.79,57.72h0a14.92,14.92,0,0,1-6.74,28.2Z"/>
    <path d="M281.39,256.15A25.36,25.36,0,1,1,256,230.79a25.35,25.35,0,0,1,25.36,25.36"/>
  </g>
</svg>
