<svg id="Layer_1" data-name="Layer 1" xmlns="http://www.w3.org/2000/svg" viewBox="0 0 512 512">
  <g>
    <path d="M408.56,124.73l12.38-14.2L431.73,120l12.57-14.42L405.2,71.42,392.62,85.83l10.89,9.5-12.37,14.18A218.18,218.18,0,0,0,272.58,63.44V43.69h33.15V10.53H207.54V43.69h31.88V63.44a218.21,218.21,0,0,0-117.48,45.24L110.3,95.33l10.89-9.5L108.61,71.42l-39.1,34.11L82.08,120l10.79-9.42,11.55,13.24A218.75,218.75,0,0,0,36.68,282.14c0,120.94,98.38,219.33,219.32,219.33s219.32-98.39,219.32-219.33A218.66,218.66,0,0,0,408.56,124.73ZM256,476C149.13,476,62.18,389,62.18,282.14S149.13,88.32,256,88.32s193.82,87,193.82,193.82S362.87,476,256,476Z" fill="#333"/>
    <path d="M256,120.2A161.94,161.94,0,0,0,94.06,282.14l163.21-.64V120.21Z" fill="#333"/>
  </g>
</svg>
