<svg id="Layer_1" data-name="Layer 1" xmlns="http://www.w3.org/2000/svg" viewBox="0 0 512 512">
  <g>
    <path d="M356,372.67a7.29,7.29,0,0,0-7.3,7.29v21.88H35.19V110.16H348.74V132a7.3,7.3,0,1,0,14.59,0V51.83a36.51,36.51,0,0,0-36.46-36.46H57.07A36.51,36.51,0,0,0,20.61,51.83V460.18a36.5,36.5,0,0,0,36.46,36.45h269.8a36.5,36.5,0,0,0,36.46-36.45V380A7.29,7.29,0,0,0,356,372.67ZM57.07,30h269.8a21.9,21.9,0,0,1,21.87,21.88V95.58H35.19V51.83A21.9,21.9,0,0,1,57.07,30ZM326.87,482H57.07a21.9,21.9,0,0,1-21.88-21.86V416.42H348.74v43.76A21.89,21.89,0,0,1,326.87,482Z"/>
    <path d="M144.57,70.06H246.66a7.3,7.3,0,0,0,0-14.59H144.57a7.3,7.3,0,0,0,0,14.59Z"/>
    <path d="M241.46,444.05a7.3,7.3,0,0,0,5.17,12.48,7.58,7.58,0,0,0,5.19-2.12,7.41,7.41,0,0,0,0-10.36A7.66,7.66,0,0,0,241.46,444.05Z"/>
    <path d="M139.37,444.05a7.3,7.3,0,0,0,5.18,12.48,7.56,7.56,0,0,0,5.18-2.12,7.41,7.41,0,0,0,0-10.36A7.66,7.66,0,0,0,139.37,444.05Z"/>
    <path d="M195.59,441.94a7.3,7.3,0,1,0,7.29,7.29A7.32,7.32,0,0,0,195.59,441.94Z"/>
    <path d="M484.1,219.55H450.83V197.66a14.61,14.61,0,0,0-14.58-14.58H407.08V168.5a14.6,14.6,0,0,0-14.58-14.58H363.33a14.6,14.6,0,0,0-14.59,14.58v51.05H211.1V168.5a14.59,14.59,0,0,0-14.58-14.58H167.36a14.6,14.6,0,0,0-14.59,14.58v14.58H123.61A14.6,14.6,0,0,0,109,197.66v21.89H75.75a7.29,7.29,0,0,0-7.29,7.28v58.34a7.3,7.3,0,0,0,7.29,7.29H109v21.88a14.6,14.6,0,0,0,14.59,14.58h29.16v14.59a14.59,14.59,0,0,0,14.59,14.57h29.16a14.58,14.58,0,0,0,14.58-14.57V292.46H348.74v51.05a14.6,14.6,0,0,0,14.59,14.57H392.5a14.59,14.59,0,0,0,14.58-14.57V328.92h29.17a14.6,14.6,0,0,0,14.58-14.58V292.46H484.1a7.29,7.29,0,0,0,7.29-7.29V226.83A7.28,7.28,0,0,0,484.1,219.55ZM83,277.88V234.13h26v43.75Zm40.57,36.46,0-116.68h29.14V314.34Zm72.91,29.17H167.36l0-175h29.14Zm14.58-65.63V234.13H348.74v43.75Zm181.37,65.63H363.33v-175H392.5Zm43.76-29.17H407.08V197.66h29.17Zm40.58-36.46h-26V234.13h26Z"/>
  </g>
</svg>
