<?xml version="1.0" encoding="UTF-8"?>
<svg id="Layer_5" data-name="Layer 5" xmlns="http://www.w3.org/2000/svg" viewBox="0 0 512 512">
  <path d="M113.35,206.17c14.73,0,29.45-.03,44.18,.01,9.71,.03,15.07,4.65,14.93,12.73-.13,7.82-5.18,12.08-14.74,12.11-22.21,.07-44.42,.18-66.63-.09-5.26-.06-8.41,1.64-11.02,6.2-7.54,13.19-15.51,26.12-23.26,39.19-4.22,7.11-3.05,9.16,5.4,9.51,12.29,.51,24.59,.84,36.87,1.44,11.68,.57,16.78,8.94,11.64,19.46-10.9,22.3-21.97,44.53-33.14,66.7-4.07,8.07-11.02,10.51-17.89,6.82-6.31-3.38-8.15-10.5-4.39-18.24,6.85-14.09,13.94-28.06,20.83-42.13,3.06-6.24,1.49-8.81-5.59-9.11-13.73-.58-27.47-1.05-41.22-1.46-17.86-.54-25.79-14.69-16.7-29.98,12.33-20.73,24.83-41.36,37-62.18,4.49-7.69,10.69-11.19,19.56-11.04,14.72,.25,29.45,.07,44.18,.07Z" fill="#fff"/>
  <path d="M110.41,183.06c-.03,10.96-8.28,19.11-19.21,18.98-10.56-.12-18.67-8.25-18.76-18.79-.09-10.96,8.04-19.27,18.94-19.33,10.95-.07,19.06,8.09,19.03,19.14Z" fill="#fff"/>
  <path d="M359.28,274.03c19.89,10.45,38.47,20.2,58.07,30.5,3.61-11.66,6.89-22.16,10.11-32.67,1.2-3.92,1.52-8.35,3.61-11.68,2.49-3.97,5.86-8.38,9.91-10.14,5.29-2.29,10.02,1.09,13.53,5.78,12.58,16.81,25.3,33.5,37.97,50.24,2.62,3.46,5.37,6.84,7.84,10.41,4.48,6.48,3.6,14.02-1.92,18.06-5.58,4.09-13.09,2.86-17.83-3.27-8.86-11.45-17.52-23.05-26.29-34.57-1.71-2.25-3.54-4.42-6.11-7.61-4.21,13.87-8.04,26.49-11.88,39.11-4.79,15.76-15.12,20.01-29.97,12.25-25.85-13.5-51.68-27.02-77.5-40.57-15.31-8.03-16.27-24.39-2.15-34.04,29.67-20.27,59.3-40.61,88.91-60.97,4.99-3.43,10.08-4.67,15.52-1.4,4.7,2.83,6.68,7.53,5.13,12.43-1.13,3.56-3.84,7.29-6.9,9.45-20.9,14.72-42.08,29.04-63.16,43.51-1.9,1.31-3.7,2.77-6.9,5.18Z" fill="#fff"/>
  <path d="M342.82,239.3c-.14,10.81-8.6,19.14-19.43,19.14-11.21,0-19.36-8.46-19.15-19.91,.2-10.68,9.08-19.3,19.57-19.01,10.64,.29,19.14,9.15,19,19.78Z" fill="#fff"/>
  <path d="M259.88,424.84c-25.84,11.62-50.64,22.76-75.43,33.91-29.86,13.43-59.73,26.87-89.58,40.33-6.18,2.79-12.13,3.11-17.58-1.53-4.93-4.19-6.99-10.01-4.36-15.58,1.95-4.14,6-8.28,10.14-10.25,25.01-11.88,50.28-23.21,75.55-34.53,4.21-1.88,6.96-3.62,7.46-9.05,.77-8.46,5.91-14.53,13.79-18.1,26.97-12.24,53.88-24.61,80.92-36.71,8.53-3.82,17.09-3.24,24.5,2.87,7.53,6.21,9.95,14.21,7.95,23.95-3.16,15.34-6.24,30.73-8.33,46.23-.73,5.44,1.36,11.33,2.53,16.93,1.67,8.01,3.89,15.91,5.49,23.94,1.76,8.81-2.35,15.83-9.78,17.49-8.54,1.91-15.33-2.59-17.56-11.87-2.99-12.41-6.57-24.75-8.43-37.34-1.05-7.14,.78-14.72,1.42-22.09,.22-2.55,.77-5.08,1.33-8.61Z" fill="#fff"/>
  <path d="M328.13,362.6c-.11,11.69-9.48,21.06-21.12,21.12-11.95,.07-21.58-9.59-21.45-21.51,.13-11.68,9.49-21.08,21.1-21.17,11.86-.1,21.58,9.66,21.47,21.56Z" fill="#fff"/>
  <path d="M299.42,54.31c3.96-4.85,7.76-9.5,12.27-15.02,5.31,5.54,9.54,9.95,14.13,14.75-4.76,4.23-9.22,8.18-13.95,12.38,18.3,25.05,23.87,51.28,15.64,79.77-5.92,20.51-18.33,36.47-36.28,47.97-36.38,23.31-84.58,15.73-112.51-17.57-27.28-32.52-26.32-81.31,2.03-112.83,28.08-31.23,77.92-40.08,118.66-9.44Zm12.21,67.25c.06-36.87-29.84-66.89-66.63-66.9-36.46,0-66.53,29.84-66.64,66.16-.12,37.12,29.36,66.99,66.27,67.13,37.03,.14,66.94-29.5,67.01-66.39Z" fill="#fff"/>
  <path d="M216.31,25.55V6.82h57.28V25.55h-57.28Z" fill="#fff"/>
  <path d="M254.45,130.59h-19.35c0-6.71,0-13.35,0-19.99,0-10.35,.22-20.7-.09-31.03-.15-4.81,1.55-6.46,6.21-6.14,4.25,.29,8.53,.06,13.24,.06v57.1Z" fill="#fff"/>
</svg>