<?xml version="1.0" encoding="UTF-8"?>
<svg id="Layer_2" data-name="Layer 2" xmlns="http://www.w3.org/2000/svg" viewBox="0 0 512 512">
  <path d="M290.99,10.38l12.59,46.98c17.19-.35,33.07,11.01,37.72,28.36,4.65,17.34-3.42,35.12-18.49,43.4l5.17,19.29c25.92-2.43,50.62,14.1,57.58,40.09,6.96,25.98-6.16,52.66-29.82,63.51l5.01,18.69c42.27-6.6,83.65,19.64,94.97,61.9,11.32,42.25-11.39,85.67-51.29,101.09l5.91,22.07h14.34v35.09h15.35v10.76h-47.62v-10.76h15.35v-23.8H104.25v23.8h15.35v10.76h-47.62v-10.76h15.35v-35.09h14.34l5.92-22.07c-39.91-15.42-62.62-58.84-51.3-101.09,11.32-42.25,52.7-68.49,94.97-61.9l5.01-18.69c-23.67-10.86-36.79-37.53-29.82-63.51,6.96-25.99,31.66-42.53,57.58-40.09l5.17-19.29c-15.07-8.29-23.14-26.07-18.49-43.4,4.65-17.35,20.53-28.71,37.72-28.36l12.59-46.98h69.99Zm-14.49,16.63h-41.01l-9.4,35.09c15.06,8.29,23.14,26.08,18.5,43.42-4.65,17.34-20.53,28.7-37.72,28.35l-5.17,19.29c23.67,10.85,36.78,37.52,29.82,63.51-6.96,25.98-31.65,42.52-57.58,40.09l-5.01,18.69c39.9,15.42,62.62,58.84,51.29,101.09-11.32,42.25-52.7,68.5-94.96,61.91l-4.64,17.32H391.39l-4.65-17.32c-42.27,6.59-83.64-19.65-94.96-61.91-11.32-42.25,11.39-85.66,51.29-101.09l-5.01-18.69c-25.93,2.43-50.62-14.11-57.58-40.09-6.97-25.99,6.15-52.66,29.82-63.51l-5.16-19.29c-17.2,.35-33.08-11.01-37.72-28.35-4.65-17.34,3.42-35.12,18.49-43.42l-9.4-35.09Zm89.02,296.88c16.94-4.54,34.38,5.53,38.92,22.47,4.54,16.94-5.53,34.38-22.47,38.91-16.94,4.54-34.37-5.53-38.91-22.46-4.54-16.94,5.53-34.37,22.46-38.92Zm-219.05,0c-16.94-4.54-34.37,5.53-38.92,22.47-4.54,16.94,5.53,34.38,22.48,38.91,16.94,4.54,34.37-5.53,38.91-22.46,4.54-16.94-5.53-34.37-22.47-38.92h0Zm224.99,22.16c-4.71,1.27-7.5,6.11-6.24,10.82,1.26,4.71,6.11,7.51,10.81,6.24,4.71-1.26,7.51-6.11,6.25-10.81s-6.11-7.51-10.82-6.25h0Zm-230.93,0c4.71,1.27,7.51,6.11,6.24,10.82-1.26,4.71-6.11,7.51-10.81,6.24-4.71-1.26-7.51-6.11-6.25-10.81,1.26-4.71,6.11-7.51,10.82-6.25h0Zm187.55-161.87c10.16-2.72,20.62,3.31,23.33,13.47,2.72,10.16-3.31,20.61-13.47,23.33-10.16,2.72-20.61-3.31-23.33-13.47-2.72-10.16,3.31-20.61,13.47-23.33Zm-144.18,0c-10.16-2.72-20.61,3.31-23.33,13.47-2.72,10.16,3.31,20.61,13.47,23.33,10.16,2.72,20.61-3.31,23.33-13.47,2.72-10.16-3.31-20.61-13.47-23.33Zm147.32,11.66c-3.72,1-5.93,4.83-4.94,8.55,1,3.71,4.83,5.93,8.55,4.93,3.72-1,5.93-4.83,4.93-8.55-.99-3.71-4.83-5.92-8.54-4.93Zm-150.45,0c3.72,1,5.93,4.83,4.94,8.55-1,3.71-4.83,5.93-8.55,4.93-3.72-1-5.93-4.83-4.93-8.55,1-3.71,4.83-5.92,8.54-4.93Zm120.43-111.99c6.49-1.74,13.16,2.12,14.91,8.6,1.74,6.49-2.12,13.16-8.61,14.9-6.49,1.74-13.17-2.12-14.91-8.6-1.74-6.49,2.12-13.17,8.61-14.91h0Zm-90.42,0c-6.49-1.74-13.17,2.12-14.91,8.6-1.74,6.49,2.12,13.16,8.6,14.9,6.48,1.74,13.17-2.12,14.91-8.6,1.74-6.49-2.12-13.17-8.6-14.91h0Zm91.98,5.83c-3.27,.87-5.21,4.24-4.34,7.51,.88,3.27,4.24,5.21,7.51,4.34,3.27-.87,5.21-4.24,4.34-7.51-.87-3.26-4.24-5.21-7.51-4.33Zm-93.55,0c3.27,.87,5.21,4.24,4.34,7.51-.88,3.27-4.24,5.21-7.51,4.34-3.27-.87-5.21-4.24-4.33-7.51,.87-3.26,4.24-5.21,7.51-4.33Z" fill-rule="evenodd"/>
</svg>