<?xml version="1.0" encoding="UTF-8"?>
<svg id="Layer_1" data-name="Layer 1" xmlns="http://www.w3.org/2000/svg" viewBox="0 0 512 512">
  <path d="M81.92,383.34c.21,.12,.46,.12,.67,.03l19.04-8.16h0c1.6-.69,3.46-.31,4.66,.95,1.2,1.26,1.49,3.14,.73,4.71,.52-.53,1-1.09,1.44-1.69l21.38-29.02c.06-.09,.13-.17,.2-.25l43.79-50.8,29.61-48.32h0c2.33-3.8,4.38-7.77,6.13-11.87l18.75-43.89-18.54-17.21-11.17,18.15-22.73,68.2c-.13,.4-.33,.78-.57,1.12l-22.8,31.57-31.61,50.93c-.22,.35-.49,.68-.81,.95l-38.32,33.32c-.21,.18-.31,.47-.25,.74,.04,.23,.19,.43,.4,.54h0Z"/>
  <path d="M479.41,324.22c-10.55-12.78-23.92-22.93-39.07-29.65l-73.68-32.6c-1.41-.62-2.36-1.96-2.47-3.5l-1.01-13.47c-8.47,5.28-24.57,14.17-40.36,16.69-21.8,3.47-50.46-1.12-60.48-2.97-.77,2.11-1.68,4.16-2.73,6.15l-1.08,2.02c-3.92,7.32-9.54,13.58-16.38,18.27l-17.43,11.89h0c-7.63,5.2-14.9,10.93-21.75,17.14l-45.84,41.54c-.33,.3-.7,.54-1.11,.72l-15.88,7.06,21.59,22.65,5.06-2.15,54.03-22.62h0c14.12-5.91,27.52-13.42,39.94-22.37l47.94-34.55c22.05,8.82,89.73,33.85,129.55,38.91l1.18,18.23c5.3,1.75,19.85,4.87,38.01-5.03l2.96-29.09h0c.13-1.18-.22-2.36-.97-3.27h0Z"/>
  <path d="M125.61,369.96l-10.44,14.16c-2.58,3.5-6.05,6.25-10.04,7.97-1.94,.83-4.16,.72-6.01-.31-1.85-1.03-3.11-2.86-3.43-4.94l-9.82,4.21c-.6,.26-1.23,.44-1.87,.57l-51.18,54.85h0c-.14,.14-.29,.28-.44,.4l-23.06,18.45c-.4,.32-.83,.64-1.27,.96h0c-.59,.4-1.14,.85-1.66,1.34-2.11,2.21-2.01,5.75-1.16,10.76,.06,.38,.13,.79,.19,1.24h0c.16,1.45,.48,2.88,.96,4.26,6.91,.14,13.81-.46,20.59-1.78,.25-.7,.41-1.43,.47-2.16,.4-3.53,2.92-18.7,3.93-20.63,.33-.64,.83-1.18,1.43-1.57l63.18-40.9h0c8.24-5.33,16.92-9.94,25.95-13.77l31.59-13.4-21.48-22.53-6.42,2.85Z"/>
  <path d="M214.81,130.8c1.98-4.49,8.04-19.81,3.15-28.7-1.2-2.18-8.8-4.8-14.86-5.79h0c-1.63-.26-2.94-1.46-3.36-3.05l-1.66-6.27-9.23,2.43h0c-.34,.09-.7,.14-1.05,.14-.13,0-9.93,.03-18.72,.47,.19,10.15,2.5,39.7,21.89,61.91,6.58-1.68,11.59-4.34,14.65-7.89,3.68-3.95,6.78-8.41,9.2-13.25h0Z"/>
  <path d="M505.55,483.34l-36.51-12.22c-1.85-.61-3.03-2.43-2.83-4.38l10.21-100.41h0c-7.66,3.53-15.98,5.4-24.41,5.48-3.99,.01-7.96-.44-11.84-1.36l8.38,97.91c.05,.53-.01,1.08-.17,1.59l-1.82,5.85c-1.11,3.6-.45,7.51,1.78,10.55,2.24,3.03,5.78,4.82,9.54,4.83h46.37c1.97,0,3.64-1.43,3.96-3.37,.31-1.94-.82-3.83-2.68-4.46h.02Z"/>
  <path d="M160.69,90.65c-6.75,1.1-12.74,5-16.47,10.74-5.61,9.61-6.99,21.9-3.53,31.32,4.15,11.27,18.34,21.24,30.38,21.32,3.47,.04,6.95-.12,10.41-.46-18.17-23.46-20.57-51.84-20.77-62.92h-.02Z"/>
  <path d="M282.28,234.28c-6.94,0-13.01-.39-17.16-.74,.79,5.69,.63,11.47-.49,17.11,10.21,1.82,37.11,5.95,56.88,2.8,16.59-2.63,34.23-13.48,40.49-17.62-1.94-7.25-4.09-14.59-6.33-21.93-12.95,6.85-26.55,12.4-40.59,16.59-10.72,2.71-21.75,3.98-32.8,3.8h0Z"/>
  <path d="M288.27,106.92c-4.65-4.44-9.47-8.74-14.48-12.87-5.97-4.92-11.82-10.26-18-15.92-15.48-14.16-31.48-28.8-49.17-35.92-10-4.03-18.46-7.28-25.15-9.67-23.69-8.46-92.98-8.56-93.67-8.56h-.27l-55.12-3.64c-1.06,.09-1.98,.75-2.4,1.73-.35,.81-.31,1.73,.11,2.5s1.17,1.31,2.04,1.46l31.71,5.52h0c1.6,.28,2.9,1.46,3.32,3.03,.42,1.57-.11,3.24-1.36,4.28l-4.85,4.05c-.07,.06-.1,.15-.09,.23,.01,.09,.07,.16,.16,.2,.07,.03,.15,.03,.21-.01l24.6-13.11c.89-.48,1.92-.61,2.9-.39l43.89,10.13c1.13,.26,2.28,.47,3.42,.63l36.81,5.02h0c.71,.1,1.38,.38,1.95,.81l69.26,52.3,44.19,8.21Z"/>
  <path d="M217.68,148.78c3.4,1.06,7.05,1,10.41-.16,3.37-1.17,6.27-3.38,8.28-6.31l1.47-2.14c2.29-3.44,3.24-7.6,2.67-11.69-.57-4.09-2.63-7.83-5.79-10.5l-7.53,1.39h0c-1.05,5.08-2.64,10.04-4.74,14.78-1.6,3.49-3.62,6.78-5.99,9.8l1.22,4.82Z"/>
  <path d="M241.22,112.61c4.29,4.1,7,9.59,7.64,15.49,.64,5.9-.82,11.84-4.14,16.77l-1.47,2.14c-2.84,4.14-6.85,7.34-11.53,9.16-4.67,1.83-9.79,2.21-14.68,1.09l-3.46,12.69,35.65,33.11c6.42,6,11.21,13.53,13.9,21.9,7.85,.79,31.65,2.56,49.67-2.52h0c13.97-4.2,27.49-9.79,40.35-16.67-.71-2.28-1.42-4.57-2.13-6.82-3-9.6-10.22-23.58-21.44-41.52h0c-9-14.34-19.38-27.77-30.99-40.1l-54.17-10.07-3.23,5.34Z"/>
  <path d="M135.27,140.64c-2.34,1.51-4.14,3.71-5.17,6.3-1.02,2.59-1.2,5.44-.52,8.13,.97,3.45,3.27,6.37,6.39,8.13,3.12,1.76,6.81,2.21,10.26,1.25,3.59-.9,6.73-3.05,8.87-6.07-8.2-3.86-15.09-10.03-19.84-17.75h0Z"/>
</svg>