<?xml version="1.0" encoding="UTF-8"?>
<svg id="Layer_3" data-name="Layer 3" xmlns="http://www.w3.org/2000/svg" viewBox="0 0 512 512">
  <path d="M422.28,152.51c-5.16-6.26-10.7-12.27-16.57-17.95l11.7-11.7,17.27,17.27-12.39,12.39Zm-37.25,264.96c-.12,.11-.15,.27-.27,.39-.11,.12-.27,.15-.39,.26-32.94,32.78-78.33,53.07-128.36,53.07s-95.41-20.29-128.37-53.07c-.12-.11-.27-.14-.4-.26-.12-.12-.15-.28-.26-.39-32.78-32.95-53.07-78.32-53.07-128.37s20.29-95.42,53.07-128.36c.11-.12,.14-.28,.26-.4,.12-.11,.28-.15,.4-.26,32.95-32.78,78.32-53.08,128.37-53.08s95.41,20.3,128.36,53.08c.12,.11,.28,.14,.39,.26s.15,.27,.27,.4c32.77,32.94,53.07,78.32,53.07,128.36s-20.3,95.41-53.07,128.37ZM94.61,122.86l11.7,11.7c-5.88,5.68-11.41,11.69-16.58,17.95l-12.38-12.39,17.26-17.27Zm144.84-48.28v-17.22h33.11v17.22c-.31-.02-.6-.01-.91-.03-5.18-.38-10.38-.64-15.64-.64s-10.47,.26-15.64,.64c-.32,.02-.61,0-.91,.03h0Zm223.48,83.09c6.61,0,13.23-2.51,18.27-7.56,10.07-10.07,10.07-26.46,0-36.54l-33.11-33.11c-10.07-10.07-26.47-10.07-36.54,0-8.02,8.02-9.55,19.99-4.81,29.64l-13.43,13.43c-29.24-24.29-64.98-41-104.2-47.08v-19.11h16.07c9.39,0,17.04-7.64,17.04-17.03v-15.58c0-9.39-7.65-17.04-17.04-17.04h-98.36c-9.39,0-17.03,7.65-17.03,17.04v15.58c0,9.39,7.64,17.03,17.03,17.03h16.07v19.11c-39.21,6.08-74.96,22.79-104.2,47.08l-13.44-13.43c4.74-9.65,3.21-21.62-4.8-29.64-10.07-10.07-26.47-10.07-36.54,0L30.81,113.58c-10.08,10.07-10.08,26.47,0,36.54,5.03,5.04,11.65,7.56,18.27,7.56,5.84,0,11.62-2.09,16.38-6.01l14.25,14.25c-24.48,34.93-38.91,77.39-38.91,123.2,0,118.66,96.54,215.19,215.2,215.19s215.19-96.54,215.19-215.19c0-45.8-14.42-88.26-38.92-123.2l14.26-14.25c4.75,3.92,10.53,6.01,16.38,6.01h0Z" fill-rule="evenodd"/>
  <path d="M256.01,322.03c-18.2,0-33.01-14.81-33.01-33.01,0-15.33,10.55-28.13,24.73-31.83v-75.67c0-4.57,3.71-8.28,8.28-8.28s8.28,3.71,8.28,8.28v75.67c14.19,3.7,24.73,16.5,24.73,31.83,0,18.2-14.81,33.01-33.01,33.01m140.7-41.19h24.41c-1.96-39.39-17.68-75.13-42.55-102.59l-17.22,17.22c-1.61,1.61-3.73,2.42-5.85,2.42s-4.24-.81-5.85-2.42c-3.24-3.24-3.24-8.47,0-11.7l17.22-17.22c-27.46-24.86-63.2-40.58-102.59-42.54v24.41c0,4.57-3.71,8.28-8.28,8.28s-8.28-3.71-8.28-8.28v-24.41c-39.39,1.96-75.13,17.68-102.59,42.54l17.22,17.22c3.24,3.24,3.24,8.47,0,11.7-1.61,1.61-3.73,2.42-5.85,2.42s-4.24-.81-5.85-2.42l-17.22-17.22c-24.86,27.46-40.58,63.2-42.54,102.59h24.41c4.57,0,8.28,3.71,8.28,8.28s-3.71,8.28-8.28,8.28h-24.41c1.96,39.39,17.68,75.13,42.54,102.59l17.22-17.22c3.24-3.24,8.47-3.24,11.7,0,3.24,3.24,3.24,8.47,0,11.7l-17.22,17.22c27.46,24.86,63.2,40.58,102.59,42.55v-24.41c0-4.57,3.71-8.28,8.28-8.28s8.28,3.71,8.28,8.28v24.41c39.39-1.96,75.13-17.69,102.59-42.55l-17.22-17.22c-3.24-3.24-3.24-8.47,0-11.7,3.24-3.24,8.47-3.24,11.7,0l17.22,17.22c24.87-27.46,40.58-63.2,42.55-102.59h-24.41c-4.57,0-8.28-3.71-8.28-8.28s3.71-8.28,8.28-8.28" fill-rule="evenodd"/>
  <path d="M256.01,272.56c-9.07,0-16.45,7.38-16.45,16.45s7.38,16.45,16.45,16.45,16.45-7.38,16.45-16.45-7.39-16.45-16.45-16.45" fill-rule="evenodd"/>
</svg>