<?xml version="1.0" encoding="UTF-8"?>
<svg id="Layer_4" data-name="Layer 4" xmlns="http://www.w3.org/2000/svg" viewBox="0 0 512 512">
  <path d="M470.88,74.93c-24.75-24.94-57.82-38.61-93.05-38.61s-68.11,13.67-92.98,38.55l-22.23,22.29c-1.72,1.79-4.12,2.77-6.71,2.77s-4.87-1.05-6.59-2.77l-22.29-22.23c-24.81-24.88-57.82-38.55-92.98-38.55s-68.17,13.67-93.05,38.55C16.19,99.8,2.51,132.87,2.51,167.91c0,29.25,9.91,56.71,27.34,79.5l120.01-1.66,29.19-134.67c.92-4.31,4.74-7.39,9.18-7.39h.06c4.37,0,8.25,2.96,9.24,7.27l19.46,85.65c1.17,5.11-2.03,10.16-7.14,11.33-5.11,1.23-10.16-2.09-11.33-7.14l-9.97-44.09-21.74,100.32c-.92,4.31-4.74,7.45-9.11,7.45l-111.51,1.54,209.73,209.68,208.39-208.2h-39.35c-5.3,0-9.42-4.19-9.42-9.42s4.13-9.48,9.42-9.48h56.16c18.11-22.97,28.39-50.87,28.39-80.67,0-35.04-13.67-68.11-38.61-92.99h0Zm-86.15,192.55h-50.93c-4.43,0-8.31-3.08-9.11-7.45l-9.67-43.47-51.73,188.86c-1.11,4.19-4.93,7.08-9.18,7.08h-.18c-4.31-.18-8.01-3.2-8.99-7.45l-36.4-160.04c-1.11-4.99,2.03-10.16,7.21-11.27,5.11-1.23,10.16,2.09,11.27,7.14l27.96,123.1,51.91-189.49c1.17-4.25,4.43-7.14,9.42-7.02,4.31,.12,8.01,3.2,9.05,7.45l16.01,73.65h43.35c5.17,0,9.42,4.19,9.42,9.48s-4.25,9.42-9.42,9.42h0Z"/>
</svg>