<?xml version="1.0" encoding="UTF-8"?>
<svg id="Layer_1" data-name="Layer 1" xmlns="http://www.w3.org/2000/svg" xmlns:xlink="http://www.w3.org/1999/xlink" viewBox="0 0 512 512">
  <defs>
    <linearGradient id="linear-gradient" x1="14.45" y1="364.75" x2="499.17" y2="364.75" gradientTransform="matrix(1, 0, 0, 1, 0, 0)" gradientUnits="userSpaceOnUse">
      <stop offset=".18" stop-color="#3d3d3d"/>
      <stop offset=".48" stop-color="#fff"/>
    </linearGradient>
    <linearGradient id="linear-gradient-2" x1="12.83" y1="170.79" x2="404.24" y2="170.79" gradientTransform="matrix(1, 0, 0, 1, 0, 0)" gradientUnits="userSpaceOnUse">
      <stop offset=".15" stop-color="#1a1a1a"/>
      <stop offset=".63" stop-color="#fff"/>
      <stop offset="1" stop-color="#fff"/>
    </linearGradient>
  </defs>
  <path d="M56.79,230.49c-1.39,8.29-2.12,16.82-2.12,25.51s.73,17.22,2.12,25.51c0,.02,.01,.06,.01,.09,12.11,71.63,74.19,126.18,149.29,126.18,83.82,0,151.78-67.96,151.78-151.78h46.37c0,107.51-86.69,194.78-194,195.69-.57,.01-1.14,.01-1.71,.01-99.51,0-181.69-74.28-194.08-170.43-.87-8.32-1.31-16.74-1.31-25.28s.44-16.96,1.31-25.28C27.09,108.4,130.49,12.99,256.16,12.99c134.21,0,243.01,108.81,243.01,243.01h-42.05c0-110.99-89.98-200.97-200.97-200.97-15.8,0-31.18,1.82-45.92,5.28-80.78,18.88-142.8,86.46-153.44,170.1,0,.02-.01,.06-.01,.09Z" fill="#fff"/>
  <path d="M457.13,256c0,110.99-89.98,200.97-200.97,200.97-15.8,0-31.18-1.82-45.92-5.28-.57,.01-1.14,.01-1.71,.01-99.51,0-181.69-74.28-194.08-170.43,12.64,122.33,116.04,217.74,241.71,217.74,134.21,0,243.01-108.81,243.01-243.01h-42.05Zm-401.94,0c0-8.65,.55-17.16,1.6-25.51-1.39,8.29-2.12,16.82-2.12,25.51s.73,17.22,2.12,25.51c-1.05-8.35-1.6-16.86-1.6-25.51Z" fill="url(#linear-gradient)"/>
  <path d="M210.24,60.31c-80.78,18.88-142.8,86.46-153.44,170.1,12.11-71.63,74.19-126.18,149.29-126.18,83.82,0,151.78,67.96,151.78,151.78h46.37c0-107.51-86.69-194.78-194-195.69ZM12.83,256c0,8.57,.55,17.01,1.62,25.28-.87-8.32-1.31-16.74-1.31-25.28s.44-16.96,1.31-25.28c-1.07,8.27-1.62,16.71-1.62,25.28Z" fill="url(#linear-gradient-2)"/>
</svg>