<svg id="Layer_1" data-name="Layer 1" xmlns="http://www.w3.org/2000/svg" viewBox="0 0 512 512">
  <g>
    <path d="M291.38,200.75l-22-3.15-10-20.47a3,3,0,0,0-5.25,0L243.62,197.6l-22.57,3.15a3.5,3.5,0,0,0-2.63,2.1c-.52,1.05,0,2.09.53,3.15l16.27,15.74-3.68,22.57a7.53,7.53,0,0,0,1.05,3.15,3.38,3.38,0,0,0,3.15,0L255.69,237l19.94,10.5c.53,0,1.05.52,1.58.52a1.93,1.93,0,0,0,1.57-.52c1.05-.52,1.58-1.58,1.05-3.15l-3.67-22.57L292.43,206a2.47,2.47,0,0,0,.52-3.15c.53-1,0-2.1-1.57-2.1Z"/>
    <path d="M455.67,118.35l-181.61-105a37.46,37.46,0,0,0-37.79,0l-181.61,105a38.35,38.35,0,0,0-18.89,32.54v210a37.07,37.07,0,0,0,18.89,32.54l181.61,105a39.38,39.38,0,0,0,18.9,5.25,34.28,34.28,0,0,0,18.89-5.25l181.61-105a38.35,38.35,0,0,0,18.89-32.54V150.89a36.63,36.63,0,0,0-18.89-32.54ZM195.85,377.11,180.11,353l-31,7.35,36.22-75.05a15.44,15.44,0,0,1,1.57,2.1l5.25,8.92c4.73,8.4,14.18,13.64,24.15,13.64h12.6ZM262,302.58a11.41,11.41,0,0,1-11.55,0l-16.27-9.45H215.8a11.28,11.28,0,0,1-10-5.77l-9.44-15.75-16.27-9.45a11.24,11.24,0,0,1-5.78-10v-18.9l-8.92-15.74a11.41,11.41,0,0,1,0-11.55l8.92-15.75V171.36a11.26,11.26,0,0,1,5.78-10l16.27-9.44,9.44-15.75a11.26,11.26,0,0,1,10-5.78h18.37L250.44,121A11.37,11.37,0,0,1,262,121l16.27,9.44h18.89a11.26,11.26,0,0,1,10,5.78l9.44,16.27,15.75,8.92a11.25,11.25,0,0,1,5.77,10v18.37L347.54,206a11.37,11.37,0,0,1,0,11.55l-9.45,16.27v18.37a11.23,11.23,0,0,1-5.77,10l-15.75,8.92-9.44,16.8a11.27,11.27,0,0,1-10,5.77H278.26Zm67.71,50.91L314,377.63l-33.07-67.18,16.27-1.05a27.8,27.8,0,0,0,24.15-14.17l4.2-7.87,35.17,72.95Z"/>
  </g>
</svg>
