<svg id="Layer_1" data-name="Layer 1" xmlns="http://www.w3.org/2000/svg" viewBox="0 0 479.52 447.67">
  <g>
    <path d="M37.53,363.35H303.08l-21.25,61.8a10.9,10.9,0,0,0,2.9,10.62c2.9,2.9,6.76,3.87,10.62,1.93l57.94-23.17,58.9,23.17c3.86,1,7.73,1,10.62-1.93a10.9,10.9,0,0,0,2.9-10.62l-21.25-61.8h34.77a32.14,32.14,0,0,0,31.86-31.87V36A32.14,32.14,0,0,0,439.23,4.14H37.53A32.15,32.15,0,0,0,5.66,36V332.45c0,17.38,14.49,30.9,31.87,30.9Zm270.38-123.6c2.89-1.93,15.45,1,25.1-2.9,4.83-1.93,8.69-5.79,12.55-9.65,1.93-1.93,5.8-5.79,6.76-5.79s4.83,3.86,6.76,5.79c8.69,9.65,13.52,11.59,27,11.59,1,0,8.69,0,10.62,1,1,1,1,5.8,1,8.69,0,14.49,1.93,19.31,11.59,29,1.93,1.93,5.79,5.8,5.79,6.76s-3.86,4.83-5.79,6.76c-3.87,3.86-7.73,7.73-9.66,12.55-3.86,9.66-1,22.22-2.9,25.11-1.93,1.93-16.41-1-25.1,2.9-6.76,2.89-10.62,8.69-15.45,12.55h-7.73c-4.83-4.83-9.66-9.66-15.45-12.55-7.73-2.9-22.21-1.93-25.11-2.9-1-1-1-5.79-1-8.69,0-14.48-1.92-19.31-11.58-29-1.93-1.93-5.8-5.79-5.8-6.76s3.87-4.83,5.8-6.76c9.65-9.65,11.58-13.52,11.58-29,1-2.9,1-7.73,1-8.69Zm48.28,155.47a8.22,8.22,0,0,0-6.76,0L306.94,412.6l21.24-60.84c5.8,3.86,12.56,14.49,25.11,14.49,11.59,0,18.34-10.63,25.1-15.46l21.25,60.84ZM25,36A12.78,12.78,0,0,1,37.53,23.45H438.26A12.79,12.79,0,0,1,450.82,36V332.45A12.78,12.78,0,0,1,438.26,345h-29c1-1,1.93-1,1.93-1.93,9.66-9.65,4.83-25.1,6.76-30.9,2.9-7.72,32.83-20.27,5.79-48.28L418,258.1c-2.89-7.73,7.73-37.66-28-37.66-10.62,0-9.66,1-16.42-5.79-15.45-15.45-26.07-16.42-41.52,0-6.76,6.76-5.79,5.79-16.41,5.79-35.73,0-25.11,29.93-28,37.66s-32.82,21.24-5.79,48.28c6.76,5.79,5.79,5.79,5.79,14.49,0,9.65,1,18.34,8.69,24.14H37.53A12.78,12.78,0,0,1,25,332.45Z"/>
    <path d="M87.74,76.56H375.5c5.79,0,9.65-3.86,9.65-9.65s-3.86-9.66-9.65-9.66H87.74c-5.79,0-9.65,3.86-9.65,9.66C78.09,71.73,82.92,76.56,87.74,76.56Z"/>
    <path d="M87.74,128.7H375.5c5.79,0,9.65-3.86,9.65-9.65s-3.86-9.66-9.65-9.66H87.74c-5.79,0-9.65,3.86-9.65,9.66,0,4.83,4.83,9.65,9.65,9.65Z"/>
    <path d="M87.74,179.88H375.5c5.79,0,9.65-3.86,9.65-9.65s-3.86-9.66-9.65-9.66H87.74c-5.79,0-9.65,3.86-9.65,9.66A9.67,9.67,0,0,0,87.74,179.88Z"/>
    <path d="M87.74,259.06H244.17c5.8,0,9.66-3.86,9.66-9.65s-3.86-9.66-9.66-9.66H87.74c-5.79,0-9.65,3.87-9.65,9.66C78.09,254.23,82.92,259.06,87.74,259.06Z"/>
    <path d="M87.74,311.21H190.1c5.79,0,9.65-3.87,9.65-9.66s-3.86-9.65-9.65-9.65H87.74c-5.79,0-9.65,3.86-9.65,9.65C78.09,306.38,82.92,311.21,87.74,311.21Z"/>
    <path d="M353.29,322.79a38.63,38.63,0,1,0-38.63-38.62C314.67,305.41,331.08,322.79,353.29,322.79Zm0-57.94A19.32,19.32,0,1,1,334,284.17,19.37,19.37,0,0,1,353.29,264.85Z"/>
  </g>
</svg>
