<svg id="Layer_1" data-name="Layer 1" xmlns="http://www.w3.org/2000/svg" viewBox="0 0 512 512">
  <g>
    <path d="M284.86,75.36a31.07,31.07,0,0,0-44,0l-3.39,3.39a31.07,31.07,0,0,0,0,44L383.11,268.28a31.09,31.09,0,0,0,43.95,0l3.38-3.39a31.05,31.05,0,0,0,0-43.95Z"/>
    <path d="M484.63,166.76,339.05,21.18a31.07,31.07,0,0,0-43.95,0l-3.39,3.39a31.07,31.07,0,0,0,0,43.95L437.29,214.11a31.09,31.09,0,0,0,43.95,0l3.39-3.4a31.09,31.09,0,0,0,0-44Z"/>
    <path d="M402.51,71.23l16.82-16.82-8.68-8.68a11,11,0,0,0-15.61,0l-1.21,1.2a11.05,11.05,0,0,0,0,15.62Z"/>
    <path d="M451.38,86.46l-16.82,16.82,8.68,8.68a11.05,11.05,0,0,0,15.62,0l1.2-1.2a11.05,11.05,0,0,0,0-15.62Z"/>
    <path d="M444.48,79.57,427.66,96.38,409.43,78.15l16.82-16.82Z"/>
    <path d="M456.86,72l-3.45-3.46,3.68-3.68,3.46,3.45,3.19-3.2-3.46-3.45L464,58l3.46,3.45.81-.81a10.08,10.08,0,0,0,0-14.26l-8.79-8.79a10.08,10.08,0,0,0-14.26,0l-.81.81,3.45,3.46-3.68,3.68-3.46-3.45-3.19,3.19,3.45,3.45-3.68,3.69-3.45-3.46-4.24,4.24,23.05,23Z"/>
    <path d="M120.73,239.49a31.08,31.08,0,0,0-44,0l-3.38,3.39a31.07,31.07,0,0,0,0,43.95L219,432.41a31.09,31.09,0,0,0,44,0l3.39-3.39a31.09,31.09,0,0,0,0-43.95Z"/>
    <path d="M66.54,293.67a31.1,31.1,0,0,0-44,0l-3.39,3.39a31.09,31.09,0,0,0,0,43.95L164.78,486.6a31.07,31.07,0,0,0,43.95,0l3.39-3.39a31.07,31.07,0,0,0,0-43.95Z"/>
    <path d="M101.31,436.55,84.49,453.37l8.68,8.68a11.05,11.05,0,0,0,15.62,0l1.2-1.21a11,11,0,0,0,0-15.61Z"/>
    <path d="M52.44,421.31l16.82-16.82-8.68-8.68a11.05,11.05,0,0,0-15.62,0l-1.2,1.2a11,11,0,0,0,0,15.61Z"/>
    <path d="M59.35,428.21l16.82-16.82L94.4,429.62,77.58,446.44Z"/>
    <path d="M47,435.79l3.45,3.45-3.68,3.69-3.46-3.46-3.18,3.2,3.45,3.45-3.69,3.69-3.45-3.46-.81.81a10.09,10.09,0,0,0,0,14.27l8.78,8.79a10.09,10.09,0,0,0,14.27,0l.81-.81L56,466l3.69-3.68,3.45,3.45,3.2-3.19-3.46-3.45,3.69-3.69L70,458.85l4.23-4.23-23-23.05Z"/>
    <path d="M174.35,276.92l54.53,54.52L330.94,229.38l-54.53-54.52Z"/>
  </g>
</svg>
