<svg id="Layer_1" data-name="Layer 1" xmlns="http://www.w3.org/2000/svg" viewBox="0 0 512 512">
  <g>
    <path d="M258.9,114.24,181.84,241.65h25.51L341.38,20H315.92Z"/>
    <path d="M415.53,20l-134,221.66h48.69L464.28,20Z"/>
    <path d="M294.73,296.37a10.4,10.4,0,0,1-5.89-9.42V262.42H264.58a10.81,10.81,0,0,1,2.08,6.2A10.41,10.41,0,0,1,256.25,279h-12.5a10.43,10.43,0,0,1-10.42-10.42,10.82,10.82,0,0,1,2.09-6.2H211.57V286.8a10.42,10.42,0,0,1-5.94,9.37,103.36,103.36,0,1,0,89.1,0Z"/>
    <path d="M231.67,241.65h25.46L391.22,20H365.76Z"/>
    <path d="M35.73,20,163.66,231.5l74.15-122.63L184.08,20Z"/>
  </g>
</svg>
